<svg id="Symbol" xmlns="http://www.w3.org/2000/svg" viewBox="0 0 24 24"><path d="M17,12.24A4.75,4.75,0,1,0,21.75,17,4.75,4.75,0,0,0,17,12.24ZM17.12,20h-.24a.5.5,0,0,1-.5-.5v-3a.5.5,0,0,1,.5-.5h.24a.5.5,0,0,1,.5.5v3A.5.5,0,0,1,17.12,20ZM17,15.49a.75.75,0,1,1,.75-.75A.75.75,0,0,1,17,15.49Z"/><path d="M11,15.08A4.09,4.09,0,1,1,15.08,11a.75.75,0,0,1-1.5,0A2.58,2.58,0,1,0,11,13.58a.75.75,0,0,1,0,1.5Z"/><path d="M11,19.25H9.33a.76.76,0,0,1-.74-.63L8.33,17a5.81,5.81,0,0,1-1.21-.69l-1.51.57a.76.76,0,0,1-.92-.33L3,13.67a.76.76,0,0,1,.18-.95l1.25-1c0-.21,0-.44,0-.68a5.32,5.32,0,0,1,0-.69l-1.26-1a.77.77,0,0,1-.18-1L4.69,5.42a.76.76,0,0,1,.92-.32l1.52.57A7.17,7.17,0,0,1,8.33,5l.26-1.6a.75.75,0,0,1,.74-.63h3.34a.75.75,0,0,1,.74.62L13.68,5a7.08,7.08,0,0,1,1.19.69l1.52-.57a.76.76,0,0,1,.92.32L19,8.31a.77.77,0,0,1-.18,1l-1.26,1a5.32,5.32,0,0,1,0,.69.75.75,0,0,1-1.5,0,4.4,4.4,0,0,0-.08-.87.78.78,0,0,1,.26-.71l1.1-.91-1-1.79L15,7.22a.73.73,0,0,1-.75-.13,4.75,4.75,0,0,0-1.49-.86.73.73,0,0,1-.49-.58L12,4.25H10L9.74,5.64a.73.73,0,0,1-.49.59,4.68,4.68,0,0,0-1.5.86A.73.73,0,0,1,7,7.22l-1.33-.5-1,1.79,1.1.91a.78.78,0,0,1,.26.71,4.4,4.4,0,0,0-.08.87,4.25,4.25,0,0,0,.07.84.75.75,0,0,1-.25.73l-1.1.9,1,1.79L7,14.76a.75.75,0,0,1,.76.14,4.48,4.48,0,0,0,1.5.86.76.76,0,0,1,.49.59l.23,1.4h1a.75.75,0,0,1,0,1.5Z"/></svg>