<svg id="Symbol" xmlns="http://www.w3.org/2000/svg" viewBox="0 0 24 24"><defs><style>.cls-1{fill:#535353;}</style></defs><path class="cls-1" d="M19.25,21.75H4.75A.76.76,0,0,1,4,21V3a.76.76,0,0,1,.75-.75h14.5A.76.76,0,0,1,20,3V21A.76.76,0,0,1,19.25,21.75ZM5.5,20.25h13V3.75H5.5Z"/><path d="M16.5,7.75h-9a.75.75,0,0,1,0-1.5h9a.75.75,0,0,1,0,1.5Z"/><path d="M16.5,10.25h-9a.75.75,0,0,1,0-1.5h9a.75.75,0,0,1,0,1.5Z"/><path d="M11,12.75H7.5a.75.75,0,0,1,0-1.5H11a.75.75,0,0,1,0,1.5Z"/><path d="M11,15.25H7.5a.75.75,0,0,1,0-1.5H11a.75.75,0,0,1,0,1.5Z"/><path d="M11,17.75H7.5a.75.75,0,0,1,0-1.5H11a.75.75,0,0,1,0,1.5Z"/><path d="M15.21,13.63v-.12a.83.83,0,0,0-.1-.46.33.33,0,0,0-.28-.13.33.33,0,0,0-.25.09.51.51,0,0,0-.08.3.41.41,0,0,0,.1.31,1.4,1.4,0,0,0,.41.25l.59.27a2.62,2.62,0,0,1,.5.35,1.41,1.41,0,0,1,.34.45h0a1.52,1.52,0,0,1,.12.62,1.4,1.4,0,0,1-.39,1,1.65,1.65,0,0,1-.94.44v.68h-.79V17a1.76,1.76,0,0,1-1.08-.53,1.68,1.68,0,0,1-.42-1.19v-.12h1.37v.12a.78.78,0,0,0,.14.5.49.49,0,0,0,.38.15.36.36,0,0,0,.27-.1.34.34,0,0,0,.09-.28.52.52,0,0,0-.09-.33,1.13,1.13,0,0,0-.42-.25l-.61-.28a2.41,2.41,0,0,1-.5-.33,1.23,1.23,0,0,1-.33-.46,1.52,1.52,0,0,1-.12-.62,1.39,1.39,0,0,1,.41-1,1.74,1.74,0,0,1,1-.44v-.73h.79v.74a1.57,1.57,0,0,1,1.3,1.65v.12Z"/></svg>