<svg id="Symbol" xmlns="http://www.w3.org/2000/svg" viewBox="0 0 24 24"><path d="M21.5,18.25H6a.76.76,0,0,1-.75-.75V4A.76.76,0,0,1,6,3.25H21.5a.76.76,0,0,1,.75.75V17.5A.76.76,0,0,1,21.5,18.25ZM6.75,16.75h14v-12h-14Z"/><path d="M19.5,21.25H3a.76.76,0,0,1-.75-.75V7.5a.75.75,0,0,1,1.5,0V19.75H19.5a.75.75,0,0,1,0,1.5Z"/><path d="M13,12.63H8.5a.75.75,0,0,1-.75-.75v-5a.76.76,0,0,1,.75-.75H13a.76.76,0,0,1,.75.75v5A.75.75,0,0,1,13,12.63Zm-3.75-1.5h3V7.63h-3Z"/><path d="M13,15.25H8.5a.75.75,0,0,1,0-1.5H13a.75.75,0,0,1,0,1.5Z"/><path d="M19,7.75H15.5a.75.75,0,0,1,0-1.5H19a.75.75,0,0,1,0,1.5Z"/><path d="M19,10.25H15.5a.75.75,0,0,1,0-1.5H19a.75.75,0,0,1,0,1.5Z"/><path d="M19,12.63H15.5a.75.75,0,0,1,0-1.5H19a.75.75,0,0,1,0,1.5Z"/><path d="M19,15.25H15.5a.75.75,0,0,1,0-1.5H19a.75.75,0,0,1,0,1.5Z"/></svg>