<svg id="Symbol" xmlns="http://www.w3.org/2000/svg" viewBox="0 0 24 24"><path d="M10,9.61H9.89l-5-1.11a.5.5,0,1,1,.22-1l5,1.11a.5.5,0,0,1-.11,1Z"/><path d="M10,12.11H9.89L4.89,11a.5.5,0,0,1,.22-1l5,1.11a.5.5,0,0,1-.11,1Z"/><path d="M10,14.61H9.89l-5-1.11a.5.5,0,0,1,.22-1l5,1.11a.5.5,0,0,1-.11,1Z"/><path d="M10,17.06l-.11,0-5-1.11a.49.49,0,0,1-.38-.59.5.5,0,0,1,.6-.38l5,1.11a.49.49,0,0,1,.38.59A.5.5,0,0,1,10,17.06Z"/><path d="M21.47,4.42a.72.72,0,0,0-.63-.15L12,6.23l-8.84-2A.75.75,0,0,0,2.25,5V18a.74.74,0,0,0,.59.73l8.91,2,.09,0,.16,0,.16,0,.09,0,8.91-2a.74.74,0,0,0,.59-.73V5A.72.72,0,0,0,21.47,4.42ZM3.75,5.93l7.5,1.67V19.07L3.75,17.4ZM20.25,17.4l-7.5,1.67V7.6l7.5-1.67Z"/><path d="M14,9.61a.5.5,0,0,1-.11-1l5-1.11a.5.5,0,0,1,.22,1l-5,1.11Z"/><path d="M14,12.11a.5.5,0,0,1-.11-1l5-1.11a.5.5,0,1,1,.22,1l-5,1.11Z"/><path d="M14,14.61a.5.5,0,0,1-.11-1l5-1.11a.5.5,0,1,1,.22,1l-5,1.11Z"/><path d="M14,17.06a.5.5,0,0,1-.49-.4.49.49,0,0,1,.38-.59l5-1.11a.5.5,0,0,1,.6.38.49.49,0,0,1-.38.59l-5,1.11Z"/></svg>