<svg id="Symbol" xmlns="http://www.w3.org/2000/svg" viewBox="0 0 24 24"><path d="M16.5,4.25H14a.77.77,0,0,0-.42.13L7.78,8.25H3A.76.76,0,0,0,2.25,9v4a.76.76,0,0,0,.75.75h.87l.89,5.37a.74.74,0,0,0,.74.63h2a.74.74,0,0,0,.57-.27.73.73,0,0,0,.17-.6l-.85-5.13h.39l5.8,3.87.15.08a.53.53,0,0,0,.12,0,.39.39,0,0,0,.15,0h2.5a.76.76,0,0,0,.75-.75V5A.76.76,0,0,0,16.5,4.25Zm-10.36,14-.75-4.5h.47l.75,4.5Zm1.11-6H3.75V9.75h3.5ZM8.75,9.4l4.5-3v9.2l-4.5-3Zm7,6.85h-1V5.75h1Z"/><path d="M19.5,14.75a.73.73,0,0,1-.5-.19.76.76,0,0,1-.06-1.06,3.2,3.2,0,0,0,.56-2,3.29,3.29,0,0,0-.56-2,.75.75,0,0,1,1.12-1,4.61,4.61,0,0,1,.94,3,4.61,4.61,0,0,1-.94,3A.73.73,0,0,1,19.5,14.75Z"/></svg>