<svg id="Symbol" xmlns="http://www.w3.org/2000/svg" viewBox="0 0 24 24"><path d="M10,19.75H5A.76.76,0,0,1,4.25,19V3A.75.75,0,0,1,5,2.25h9.5a.75.75,0,0,1,.75.75v8a.75.75,0,0,1-1.5,0V3.75h-8v14.5H10a.75.75,0,0,1,0,1.5Z"/><path d="M20.75,17A4.75,4.75,0,1,0,16,21.75,4.75,4.75,0,0,0,20.75,17m-4.13,2.5a.5.5,0,0,1-.5.5h-.24a.5.5,0,0,1-.5-.5v-3a.5.5,0,0,1,.5-.5h.24a.5.5,0,0,1,.5.5Zm-.62-4a.75.75,0,1,1,.75-.75A.76.76,0,0,1,16,15.5Z"/><rect x="6.75" y="5.25" width="2.5" height="2.5" rx="0.75"/><rect x="10.25" y="5.25" width="2.5" height="2.5" rx="0.75"/><rect x="6.75" y="9.25" width="2.5" height="2.5" rx="0.75"/><rect x="6.75" y="13.25" width="2.5" height="2.5" rx="0.75"/><rect x="10.25" y="9.25" width="2.5" height="2.5" rx="0.75"/></svg>