<svg id="Symbol" xmlns="http://www.w3.org/2000/svg" viewBox="0 0 24 24"><path d="M19.38,8.89A3.75,3.75,0,1,0,13.25,6a3.67,3.67,0,0,0,.37,1.62,3.73,3.73,0,0,0-3.24,0A3.67,3.67,0,0,0,10.75,6,3.75,3.75,0,1,0,4.62,8.89,4.74,4.74,0,0,0,2.25,13v3a.76.76,0,0,0,.75.75H7.42A4.71,4.71,0,0,0,7.25,18v3a.76.76,0,0,0,.75.75h8a.76.76,0,0,0,.75-.75V18a4.71,4.71,0,0,0-.17-1.25H21a.76.76,0,0,0,.75-.75V13A4.74,4.74,0,0,0,19.38,8.89ZM17,3.75A2.25,2.25,0,1,1,14.75,6,2.25,2.25,0,0,1,17,3.75ZM10.27,9.56a2.25,2.25,0,0,1,3.46,0A2.21,2.21,0,0,1,14.25,11a1.66,1.66,0,0,1,0,.32,2.21,2.21,0,0,1-2,1.92h-.5a2.21,2.21,0,0,1-2-1.92,1.66,1.66,0,0,1,0-.32A2.21,2.21,0,0,1,10.27,9.56ZM7,3.75A2.25,2.25,0,1,1,4.75,6,2.25,2.25,0,0,1,7,3.75ZM3.75,15.25V13A3.26,3.26,0,0,1,7,9.75a3.21,3.21,0,0,1,1.38.31,3.28,3.28,0,0,0-.13.94,3.71,3.71,0,0,0,1.37,2.89,4.73,4.73,0,0,0-1.49,1.36Zm11.5,5H8.75V18A3.28,3.28,0,0,1,9,16.75a3.24,3.24,0,0,1,2.75-2,1.57,1.57,0,0,1,.5,0,3.24,3.24,0,0,1,2.75,2A3.28,3.28,0,0,1,15.25,18Zm5-5H15.87a4.73,4.73,0,0,0-1.49-1.36A3.71,3.71,0,0,0,15.75,11a3.28,3.28,0,0,0-.13-.94A3.21,3.21,0,0,1,17,9.75,3.26,3.26,0,0,1,20.25,13Z"/></svg>