<svg id="Symbol" xmlns="http://www.w3.org/2000/svg" viewBox="0 0 24 24"><path d="M20.62,10,17.09,8.44l.72-2.14a.75.75,0,0,0,0-.42l-.59-2.43a.77.77,0,0,0-.55-.55l-2.5-.63a.75.75,0,0,0-.89.49l-1,2.94L10,8.34,7.75,9A.76.76,0,0,0,7,8.25H3A.76.76,0,0,0,2.25,9V19a.76.76,0,0,0,.75.75H7A.76.76,0,0,0,7.75,19v-.3l5.52,1.74a.62.62,0,0,0,.23,0h4.4a1.89,1.89,0,0,0,1.81-1.36l2-6.92A1.88,1.88,0,0,0,20.62,10ZM6.25,18.25H3.75V9.75h2.5Zm12,.46a.37.37,0,0,1-.36.27H13.62L7.75,17.12V10.56l2.86-.84A.7.7,0,0,0,11,9.49l2.55-2.91a.77.77,0,0,0,.14-.25l.84-2.43,1.39.35L16.32,6l-.87,2.59a.77.77,0,0,0,.41.93L20,11.34a.38.38,0,0,1,.22.45Z"/></svg>