<svg id="Symbol" xmlns="http://www.w3.org/2000/svg" viewBox="0 0 23.97 23.97"><path d="M22.38,22.72h-20A.76.76,0,0,1,1.63,22V2a.75.75,0,0,1,.75-.75h20a.74.74,0,0,1,.75.75V22A.75.75,0,0,1,22.38,22.72ZM3.13,21.22h18.5V2.72H3.13Z"/><path d="M5.38,19.83a.76.76,0,0,1-.75-.75V16.36a.75.75,0,0,1,1.5,0v2.72A.75.75,0,0,1,5.38,19.83Z"/><path d="M10.38,19.83a.76.76,0,0,1-.75-.75V15.31a.75.75,0,0,1,1.5,0v3.77A.75.75,0,0,1,10.38,19.83Z"/><path d="M7.88,19.83a.76.76,0,0,1-.75-.75V13.86a.75.75,0,0,1,1.5,0v5.22A.75.75,0,0,1,7.88,19.83Z"/><path d="M8.13,3.67a4,4,0,0,0-4,4,4,4,0,0,0,4,4,4,4,0,0,0,3.69-2.45s0,0,0,0a.88.88,0,0,0,.05-.15,3.93,3.93,0,0,0,.25-1.38A4,4,0,0,0,8.13,3.67Zm.75,1.61a2.51,2.51,0,0,1,1.75,2.39,1.62,1.62,0,0,1,0,.22L8.88,7.17ZM5.63,7.67A2.51,2.51,0,0,1,7.38,5.28v2.1L6,9A2.42,2.42,0,0,1,5.63,7.67Zm2.5,2.5a2.44,2.44,0,0,1-1-.22L8.34,8.57l1.71.7A2.5,2.5,0,0,1,8.13,10.17Z"/><path d="M13.38,14.72a.75.75,0,0,1-.53-.22.63.63,0,0,1-.16-.24.72.72,0,0,1-.06-.29.75.75,0,0,1,.22-.53.78.78,0,0,1,.24-.16.75.75,0,0,1,1,.69.72.72,0,0,1-.06.29.78.78,0,0,1-.16.24A.75.75,0,0,1,13.38,14.72Z"/><path d="M13.38,17.22a.75.75,0,0,1-.75-.75.72.72,0,0,1,.06-.29.74.74,0,0,1,.4-.4.75.75,0,0,1,.82.16.78.78,0,0,1,.16.24.72.72,0,0,1,.06.29.75.75,0,0,1-.75.75Z"/><path d="M13.38,19.72a.72.72,0,0,1-.29-.06.78.78,0,0,1-.24-.16.63.63,0,0,1-.16-.24.73.73,0,0,1,0-.58.74.74,0,0,1,.4-.4.73.73,0,0,1,.58,0,.63.63,0,0,1,.24.16.78.78,0,0,1,.16.24.74.74,0,0,1-.16.82.78.78,0,0,1-.24.16A.75.75,0,0,1,13.38,19.72Z"/><path d="M19.88,14.72h-4.5a.75.75,0,0,1,0-1.5h4.5a.75.75,0,0,1,0,1.5Z"/><path d="M19.88,17.22h-4.5a.75.75,0,1,1,0-1.5h4.5a.75.75,0,1,1,0,1.5Z"/><path d="M19.88,19.72h-4.5a.75.75,0,0,1,0-1.5h4.5a.75.75,0,0,1,0,1.5Z"/><path d="M13.88,10.85a.75.75,0,0,1-.38-.1.76.76,0,0,1-.26-1l1.83-3.14a.75.75,0,0,1,.52-.36.7.7,0,0,1,.61.17L17.86,7.8l1.29-2.22a.75.75,0,1,1,1.3.76l-1.75,3a.77.77,0,0,1-.53.36.79.79,0,0,1-.61-.17L15.91,8.11l-1.38,2.37A.75.75,0,0,1,13.88,10.85Z"/></svg>