<svg id="Symbol" xmlns="http://www.w3.org/2000/svg" viewBox="0 0 24 24"><path d="M19.74,6.85a.76.76,0,0,0-.21-.38l-4-4a.76.76,0,0,0-.38-.21H5A.76.76,0,0,0,4.25,3V21a.76.76,0,0,0,.75.75H19a.76.76,0,0,0,.75-.75V7A.76.76,0,0,0,19.74,6.85Zm-2.55-.6H15.75V4.81Zm1.06,14H5.75V3.75h8.5V7a.76.76,0,0,0,.75.75h3.25Z"/><path d="M16,17.75H8a.75.75,0,0,1,0-1.5h8a.75.75,0,0,1,0,1.5Z"/><path d="M16,14.75H8a.75.75,0,0,1,0-1.5h8a.75.75,0,0,1,0,1.5Z"/><path d="M16,11.75H8a.75.75,0,0,1,0-1.5h8a.75.75,0,0,1,0,1.5Z"/></svg>