<svg id="Symbol" xmlns="http://www.w3.org/2000/svg" viewBox="0 0 24 24"><path d="M12,16.75A4.75,4.75,0,1,1,16.75,12,4.75,4.75,0,0,1,12,16.75Zm0-8A3.25,3.25,0,1,0,15.25,12,3.26,3.26,0,0,0,12,8.75Z"/><path d="M14,21.75H10a.75.75,0,0,1-.74-.63l-.33-2a7.15,7.15,0,0,1-1.56-.91l-1.89.72a.75.75,0,0,1-.92-.33l-2-3.47a.75.75,0,0,1,.17-1L4.3,12.89a8.22,8.22,0,0,1,0-.89,6.77,6.77,0,0,1,.06-.89L2.73,9.81a.75.75,0,0,1-.17-1l2-3.47a.74.74,0,0,1,.91-.33l1.91.72a7.24,7.24,0,0,1,1.55-.89l.33-2A.75.75,0,0,1,10,2.25h4a.74.74,0,0,1,.74.63l.34,2a7.42,7.42,0,0,1,1.54.89l1.91-.72a.74.74,0,0,1,.91.33l2,3.47a.75.75,0,0,1-.17,1l-1.58,1.3a6.77,6.77,0,0,1,.06.89,8.22,8.22,0,0,1-.05.89l1.57,1.29a.75.75,0,0,1,.17,1l-2,3.47a.75.75,0,0,1-.92.33l-1.89-.72a7.73,7.73,0,0,1-1.55.9l-.34,2A.74.74,0,0,1,14,21.75Zm-3.36-1.5h2.73l.3-1.8a.75.75,0,0,1,.48-.58A5.92,5.92,0,0,0,16,16.79a.75.75,0,0,1,.76-.13l1.7.64,1.36-2.37-1.41-1.16a.75.75,0,0,1-.25-.73,5.37,5.37,0,0,0,.09-1,5.69,5.69,0,0,0-.1-1.07.74.74,0,0,1,.26-.71l1.41-1.16L18.46,6.69l-1.72.64A.74.74,0,0,1,16,7.2a5.62,5.62,0,0,0-1.83-1.06.78.78,0,0,1-.49-.59l-.3-1.8H10.64l-.3,1.8a.76.76,0,0,1-.49.59A5.66,5.66,0,0,0,8,7.2a.75.75,0,0,1-.76.13L5.54,6.69,4.18,9.06l1.41,1.16a.74.74,0,0,1,.26.71A5.69,5.69,0,0,0,5.75,12a5.37,5.37,0,0,0,.09,1,.75.75,0,0,1-.25.73L4.18,14.93,5.54,17.3l1.7-.64a.75.75,0,0,1,.76.13,5.6,5.6,0,0,0,1.85,1.07.76.76,0,0,1,.49.59Z"/></svg>