<svg id="Symbol" xmlns="http://www.w3.org/2000/svg" viewBox="0 0 24 24"><path d="M21,20.75a.75.75,0,0,1-.53-.22l-1.78-1.78H8A.76.76,0,0,1,7.25,18V17a.75.75,0,0,1,1.5,0v.25H19a.75.75,0,0,1,.53.22l.72.72V8.58H20a.75.75,0,0,1,0-1.5h1a.75.75,0,0,1,.75.75V20a.74.74,0,0,1-.46.69A.75.75,0,0,1,21,20.75Z"/><path d="M3,17.25a.75.75,0,0,1-.29-.06.74.74,0,0,1-.46-.69V4A.76.76,0,0,1,3,3.25H17.5a.76.76,0,0,1,.75.75V14.5a.76.76,0,0,1-.75.75H5.31L3.53,17A.75.75,0,0,1,3,17.25Zm.75-12.5v9.94L4.47,14A.75.75,0,0,1,5,13.75H16.75v-9Z"/><path d="M9.34,10.53A3.07,3.07,0,0,1,9.5,9.45a1.62,1.62,0,0,1,.5-.69,3.3,3.3,0,0,0,.53-.54.85.85,0,0,0,.18-.53c0-.47-.2-.71-.61-.71a.54.54,0,0,0-.45.21.88.88,0,0,0-.19.56H7.87a2,2,0,0,1,.59-1.47,2.37,2.37,0,0,1,1.64-.52,2.49,2.49,0,0,1,1.63.48,1.72,1.72,0,0,1,.57,1.38,1.64,1.64,0,0,1-.15.71,2.52,2.52,0,0,1-.5.65l-.54.51a1.25,1.25,0,0,0-.32.45,1.9,1.9,0,0,0-.1.59ZM9.15,12a.76.76,0,0,1,.25-.57,1,1,0,0,1,1.26,0,.72.72,0,0,1,.25.57.71.71,0,0,1-.25.57,1,1,0,0,1-1.26,0A.74.74,0,0,1,9.15,12Z"/></svg>