<svg id="Symbol" xmlns="http://www.w3.org/2000/svg" viewBox="0 0 24 24"><path d="M15,15.52l1.75-1.75a6.74,6.74,0,0,0,0-9.54A6.75,6.75,0,0,0,5.25,9a6.68,6.68,0,0,0,2,4.77L9,15.52C7,15.88,5.25,16.67,5.25,18c0,1.89,3.49,2.75,6.75,2.75s6.75-.86,6.75-2.75C18.75,16.67,17,15.88,15,15.52ZM8.29,12.71a5.24,5.24,0,0,1,0-7.42,5.25,5.25,0,0,1,9,3.71,5.18,5.18,0,0,1-1.54,3.71L12,16.42ZM12,19.25c-3.37,0-5.15-.92-5.26-1.23.08-.23,1.09-.93,3.56-1.18L11.47,18a.75.75,0,0,0,1.06,0l1.17-1.17c2.48.24,3.49.95,3.56,1.14C17.15,18.33,15.37,19.25,12,19.25Z"/><circle cx="12" cy="9" r="2.75"/></svg>