<svg id="Symbol" xmlns="http://www.w3.org/2000/svg" viewBox="0 0 24 24"><path d="M20.36,14.51a1.94,1.94,0,0,0-.5-.2V9.69a1.94,1.94,0,0,0,.5-.2,2,2,0,0,0-2-3.47,1.76,1.76,0,0,0-.43.33L13.92,4A1.91,1.91,0,0,0,14,3.5a2,2,0,0,0-4,0,1.91,1.91,0,0,0,.08.54l-4,2.31A1.7,1.7,0,0,0,5.64,6a2,2,0,1,0-2,3.47,1.94,1.94,0,0,0,.5.2v4.62a1.94,1.94,0,0,0-.5.2,2,2,0,1,0,2,3.47,1.7,1.7,0,0,0,.42-.33l4,2.31a2.35,2.35,0,0,0-.07.54,2,2,0,0,0,4,0,1.88,1.88,0,0,0-.07-.53l4-2.32a1.76,1.76,0,0,0,.43.33,2,2,0,0,0,2-3.47ZM5.18,14.32h0V9.69A2,2,0,0,0,6.56,7.22l4-2.32,0,0Zm8.24,4.78a2,2,0,0,0-2.85,0l-4-2.31a0,0,0,0,0,0,0H17.43a0,0,0,0,0,0,0Zm4.21-3.85a1.94,1.94,0,0,0-.2.5H6.57a2.16,2.16,0,0,0-.2-.51A2,2,0,0,0,6,14.81l5.43-9.38a2,2,0,0,0,1.06,0L18,14.82A1.76,1.76,0,0,0,17.63,15.25Zm1.23-.94h0L13.4,4.92l0,0,4,2.32a2,2,0,0,0,.19,1.53,2,2,0,0,0,1.23.94Z"/></svg>