<svg id="Symbol" xmlns="http://www.w3.org/2000/svg" viewBox="0 0 24 24"><path d="M10.5,21.75h-2A.76.76,0,0,1,7.75,21V18a.76.76,0,0,1,.75-.75h2a.76.76,0,0,1,.75.75v3A.76.76,0,0,1,10.5,21.75Zm-1.25-1.5h.5v-1.5h-.5Z"/><rect x="2.75" y="19.25" width="3.5" height="2.5" rx="0.75"/><path d="M20.5,21.75h-2a.76.76,0,0,1-.75-.75V10a.76.76,0,0,1,.75-.75h2a.76.76,0,0,1,.75.75V21A.76.76,0,0,1,20.5,21.75Zm-1.25-1.5h.5v-9.5h-.5Z"/><path d="M15.5,21.75h-2a.76.76,0,0,1-.75-.75V15a.76.76,0,0,1,.75-.75h2a.76.76,0,0,1,.75.75v6A.76.76,0,0,1,15.5,21.75Zm-1.25-1.5h.5v-4.5h-.5Z"/><path d="M4,16.75a.75.75,0,0,1,0-1.5c4.86-.1,10-4.12,12.64-9.43l-.91-.38a.75.75,0,0,1-.46-.61.77.77,0,0,1,.32-.7l2.49-1.74a.83.83,0,0,1,.27-.12h.07a.73.73,0,0,1,.83.59,0,0,0,0,1,0,0l.5,3a.76.76,0,0,1-.27.71.75.75,0,0,1-.76.1L18,6.4C15.16,12.22,9.42,16.63,4,16.75Z"/></svg>