<svg xmlns="http://www.w3.org/2000/svg" viewBox="0 0 36 36"><path d="M18,0A18,18,0,0,0,4.19,29.52a1.64,1.64,0,0,0,.21.25,18,18,0,0,0,27.2,0,1.64,1.64,0,0,0,.21-.25A18,18,0,0,0,18,0Zm0,34A15.91,15.91,0,0,1,7.44,30H28.56A15.91,15.91,0,0,1,18,34Zm3.71-11.71A1.05,1.05,0,0,0,21,22H19a1,1,0,0,0-1,1v5H12V20.44L18,15l6,5.4V28H22V23A1,1,0,0,0,21.71,22.29ZM25.38,19l-6.71-6a1,1,0,0,0-1.34,0l-6.71,6H8l10-9,10,9Zm5.1,9H26V21h2a2,2,0,0,0,1.34-3.49l-10-9a2.06,2.06,0,0,0-2.68,0l-10,9A2,2,0,0,0,8,21h2v7H5.52a16,16,0,1,1,25,0Z"/><rect x="14" y="22" width="3" height="3" rx="1"/></svg>