<svg xmlns="http://www.w3.org/2000/svg" viewBox="0 0 1067.86 710.32"><defs><style>.a{fill:#c2eaf6;}.b{fill:#fff;}</style></defs><path class="a" d="M562.19,621.67a11.62,11.62,0,0,1-11.76-11.75V479.35a11.76,11.76,0,1,1,23.51,0V609.92A11.61,11.61,0,0,1,562.19,621.67Z"/><path class="a" d="M662.22,535.66a38,38,0,0,0-16.91-3.51c-13.2,0-21,9.9-21,26v17.74c0,16.3,6.81,26.2,20.42,26.2a38.31,38.31,0,0,0,17.53-3.92,8.65,8.65,0,0,1,12,5c1.85,5.57-.42,9.69-4.54,12-8.46,4.54-17.74,6-26.4,6-29.5,0-41.88-19.59-41.88-46.41V560.41c0-26,14-47.44,42.08-47.44,8.46,0,18.57,1.44,26.4,6,4.34,2.48,6.4,6.6,4.13,12.17A8.47,8.47,0,0,1,662.22,535.66Z"/><path class="a" d="M730.49,621.05c-30.11,0-42.9-19.59-42.9-43.11V556.29c0-23.72,12.79-43.32,42.9-43.32,29.91,0,42.91,19.6,42.91,43.32v21.65C773.4,601.46,760.4,621.05,730.49,621.05Zm20-64.76c0-14-6.19-22.49-20-22.49-14,0-20,8.46-20,22.49v21.45c0,14,6,22.48,20,22.48,13.82,0,20-8.46,20-22.48Z"/><path class="a" d="M873.64,621.05a11.31,11.31,0,0,1-11.34-11.34V553.6c0-10.72-3.1-19.18-16.92-19.18-9.9,0-17.12,4.33-21.24,10.93v64.36a11.56,11.56,0,0,1-23.11,0V543.08c0-7.63-2.47-9.69-6.18-12.17a8.83,8.83,0,0,1-3.72-7c0-6.81,5-9.69,11.55-9.69a20.3,20.3,0,0,1,12,4.33,19.9,19.9,0,0,1,4.74,6.19C826.61,517.3,836.93,513,851,513c26,0,34.24,15.88,34.24,38.16v58.58A11.48,11.48,0,0,1,873.64,621.05Z"/><path class="a" d="M942.32,621.05c-14,0-22.07-1.65-29.49-4.33-5.16-1.85-7.22-7.84-5.57-12.58a9.55,9.55,0,0,1,12.58-6c6.4,2.27,11.76,3.92,22.69,3.92,12.79,0,19.18-5.16,19.18-13,0-11.76-14.64-11.76-28.87-15.26-13-3.1-25.58-8.87-25.58-28.88,0-20.83,16.71-32,37.13-32,12.37,0,20,1.44,27.64,4.33a9.82,9.82,0,0,1,6.19,12.58,9.6,9.6,0,0,1-12.17,6c-7.64-2.68-13-3.91-20.63-3.91-11.14,0-16.5,5.15-16.5,11.55,0,10.72,12.17,11.55,25.78,14.44,14.23,3.09,28.88,8.25,28.88,30.11C983.58,611.15,964.6,621.05,942.32,621.05Z"/><path d="M236.26,327.37a3.49,3.49,0,0,1-3.49-3.49v-3.49a3.49,3.49,0,1,1,7,0v3.49A3.49,3.49,0,0,1,236.26,327.37Z"/><path d="M253.54,334.53a3.5,3.5,0,0,1-2.47-6l2.47-2.47a3.49,3.49,0,0,1,4.93,4.93L256,333.5A3.52,3.52,0,0,1,253.54,334.53Z"/><path d="M266,360.18a15.64,15.64,0,0,0-2.65-8.37h.87a3.49,3.49,0,0,0,0-7h-3.49a3.47,3.47,0,0,0-3.07,1.83,15.23,15.23,0,0,0-4.21-1.52,17.44,17.44,0,0,0-32-6,15.69,15.69,0,0,0-27,10.88,15.88,15.88,0,0,0,.74,4.8,12.29,12.29,0,0,0-2.33,5.24,10.47,10.47,0,0,0,5,19.64h62.87A10.48,10.48,0,0,0,266,360.18Zm-29.71-22.34a10.51,10.51,0,0,1,10.05,7.49,15.71,15.71,0,0,0-7.78,4.73H238a15.35,15.35,0,0,0-3.78.47,19,19,0,0,0-8.09-4.89A10.49,10.49,0,0,1,236.25,337.84Zm-19.73,34.9H197.85a3.47,3.47,0,0,1-.88-6.84l2.63-.67v-3a5.21,5.21,0,0,1,1.88-4l2.1-1.79L202.32,354a8.72,8.72,0,1,1,16.4-5.17l.37,2.71,2.73.29a12.14,12.14,0,0,1,5.76,2.16,14.33,14.33,0,0,0-1.35,1.35,12.25,12.25,0,0,0-10.89,12.15A12,12,0,0,0,216.52,372.74Zm44.2,0H227.56a5.24,5.24,0,1,1,0-10.47h2.25l1-1.5a8,8,0,0,1,1.06-1.25A8.69,8.69,0,0,1,238,357h.44c.35,0,.73.06,1.11.12l2.2.34,1.24-1.85a8.72,8.72,0,0,1,7.23-3.86h0a8.74,8.74,0,0,1,8.73,8.73,5.64,5.64,0,0,1-.09,1.16l-.75,3.36,3.35.79a3.55,3.55,0,0,1,2.72,3.41A3.49,3.49,0,0,1,260.72,372.74Z"/><path d="M219,334.52a3.49,3.49,0,0,1-2.47-1L214,331a3.49,3.49,0,1,1,4.94-4.94l2.47,2.47a3.49,3.49,0,0,1-2.47,6Z"/><path d="M642.52,327.23a3.49,3.49,0,0,1-3.49-3.49v-3.49a3.49,3.49,0,0,1,7,0v3.49A3.49,3.49,0,0,1,642.52,327.23Z"/><path d="M659.8,334.39a3.49,3.49,0,0,1-2.47-6L659.8,326a3.49,3.49,0,0,1,4.93,4.93l-2.47,2.47A3.47,3.47,0,0,1,659.8,334.39Z"/><path d="M672.21,360a15.64,15.64,0,0,0-2.65-8.37h.88a3.49,3.49,0,0,0,0-7H667a3.47,3.47,0,0,0-3.07,1.83,15.23,15.23,0,0,0-4.21-1.52,17.45,17.45,0,0,0-32-6,15.68,15.68,0,0,0-27,10.88,15.94,15.94,0,0,0,.75,4.8,12.23,12.23,0,0,0-2.33,5.24,10.46,10.46,0,0,0,5,19.63H667A10.48,10.48,0,0,0,672.21,360Zm-29.7-22.33a10.49,10.49,0,0,1,10,7.48,15.63,15.63,0,0,0-7.76,4.74h-.52a15.27,15.27,0,0,0-3.77.47,19,19,0,0,0-8.1-4.89A10.49,10.49,0,0,1,642.51,337.71Zm-19.73,34.9H604.11a3.49,3.49,0,0,1-3.49-3.49,3.45,3.45,0,0,1,2.61-3.35l2.63-.68v-2.95a5.18,5.18,0,0,1,1.88-4l2.09-1.79-1.25-2.46a8.72,8.72,0,1,1,16.4-5.17l.37,2.72,2.72.29a12.26,12.26,0,0,1,5.77,2.16,14.33,14.33,0,0,0-1.35,1.35,12.23,12.23,0,0,0-10.89,12.15A12,12,0,0,0,622.78,372.61Zm44.2,0H633.82a5.24,5.24,0,1,1,0-10.47h2.25l1-1.51a8.44,8.44,0,0,1,1.06-1.25,8.73,8.73,0,0,1,6.09-2.48h.44a10.86,10.86,0,0,1,1.1.12l2.21.35,1.24-1.85a8.7,8.7,0,0,1,7.22-3.86h0a8.74,8.74,0,0,1,8.73,8.72,5,5,0,0,1-.1,1.17l-.74,3.36,3.35.79a3.54,3.54,0,0,1,2.72,3.41A3.49,3.49,0,0,1,667,372.61Z"/><path d="M625.24,334.39a3.47,3.47,0,0,1-2.47-1l-2.47-2.47a3.49,3.49,0,1,1,4.94-4.94l2.47,2.47a3.49,3.49,0,0,1-2.47,6Z"/><path d="M625.06,397.05a3.49,3.49,0,0,1-3.12-5.05l3.49-7a3.49,3.49,0,1,1,6.24,3.12l-3.49,7A3.49,3.49,0,0,1,625.06,397.05Z"/><path d="M611.09,397.05A3.49,3.49,0,0,1,608,392l3.49-7a3.49,3.49,0,1,1,6.24,3.12l-3.49,7A3.49,3.49,0,0,1,611.09,397.05Z"/><path d="M639,397.05A3.49,3.49,0,0,1,635.9,392l3.49-7a3.49,3.49,0,1,1,6.24,3.12l-3.49,7A3.49,3.49,0,0,1,639,397.05Z"/><path d="M653,397.05a3.53,3.53,0,0,1-1.56-.37,3.49,3.49,0,0,1-1.56-4.68l3.49-7a3.49,3.49,0,1,1,6.25,3.12l-3.49,7A3.5,3.5,0,0,1,653,397.05Z"/><path d="M466.9,358.55a20.58,20.58,0,0,0,.28-3.39,21,21,0,0,0-20.95-20.94,20.7,20.7,0,0,0-9.11,2.12,17.45,17.45,0,1,0-29.29,18.82,12.22,12.22,0,0,0,0,24.44h50.62a12.22,12.22,0,0,0,8.45-21.05Zm-45.1-24.33a10.47,10.47,0,0,1,9.56,6.22,20.46,20.46,0,0,0-3.32,4.35,19.86,19.86,0,0,0-15.33,5.09,10.37,10.37,0,0,1-1.38-5.19A10.48,10.48,0,0,1,421.8,334.22Zm36.65,38.4H407.83a5.24,5.24,0,0,1,0-10.48,5.62,5.62,0,0,1,1.7.29l3.2,1,1.15-3.17a.08.08,0,0,1,0,0,12.77,12.77,0,0,1,4.19-5.76,13,13,0,0,1,8.07-2.82,12.29,12.29,0,0,1,3,.39h0l2.92.73,1.13-2.84a14,14,0,0,1,26.92,5.2,14.73,14.73,0,0,1-.54,3.87l-.69,2.51,2.22,1.37a5.24,5.24,0,0,1-2.74,9.71Z"/><path d="M421.81,323.75a3.5,3.5,0,0,1-3.49-3.5v-3.49a3.49,3.49,0,0,1,7,0v3.49A3.5,3.5,0,0,1,421.81,323.75Z"/><path d="M439.08,330.9a3.49,3.49,0,0,1-2.46-5.95l2.46-2.47a3.49,3.49,0,0,1,4.94,4.93l-2.47,2.47A3.47,3.47,0,0,1,439.08,330.9Z"/><path d="M397.37,348.18h-3.49a3.49,3.49,0,0,1,0-7h3.49a3.49,3.49,0,0,1,0,7Z"/><path d="M404.53,330.9a3.47,3.47,0,0,1-2.47-1l-2.47-2.47a3.49,3.49,0,0,1,4.94-4.94l2.46,2.47a3.49,3.49,0,0,1-2.46,6Z"/><path d="M416.57,397.05a3.49,3.49,0,0,1-3.12-5.05l3.49-7a3.49,3.49,0,1,1,6.24,3.12l-3.49,7A3.49,3.49,0,0,1,416.57,397.05Z"/><path d="M430.53,397.05a3.49,3.49,0,0,1-3.12-5.05l3.49-7a3.49,3.49,0,1,1,6.25,3.12l-3.49,7A3.51,3.51,0,0,1,430.53,397.05Z"/><path d="M444.49,397.05a3.5,3.5,0,0,1-3.12-5.05l3.5-7a3.49,3.49,0,1,1,6.24,3.12l-3.49,7A3.5,3.5,0,0,1,444.49,397.05Z"/><path d="M868.53,379.59H849.3a3.49,3.49,0,0,1,0-7h19.23a5.24,5.24,0,0,0,1.06-10.37l-2.8-.56v-3a8.43,8.43,0,0,0-1.7-5.15l-1.68-2.21,1.77-2.13a7.07,7.07,0,0,0,1.61-4.48,7,7,0,0,0-14,0,3.49,3.49,0,0,1-7,0A14,14,0,1,1,872,351.45a15.37,15.37,0,0,1,1.56,4.8,12.22,12.22,0,0,1-5.06,23.34Z"/><path d="M859.8,369.12H842.34a3.49,3.49,0,0,1,0-7H859.8a3.49,3.49,0,0,1,0,7Z"/><path d="M821.4,369.12h-7a3.49,3.49,0,0,1,0-7h7a3.49,3.49,0,0,1,0,7Z"/><path d="M838.85,379.59h-14a3.49,3.49,0,0,1,0-7h14a3.49,3.49,0,1,1,0,7Z"/><path d="M838.89,348.17h-10.5a3.49,3.49,0,0,1,0-7h10.5a3.49,3.49,0,0,1,0,7Z"/><line class="b" x1="831.89" y1="365.63" x2="831.85" y2="365.63"/><path d="M831.89,369.12h0a3.49,3.49,0,1,1,3.51-3.49A3.49,3.49,0,0,1,831.85,369.12Z"/><path d="M814.36,379.59H810.9a3.49,3.49,0,0,1,0-7h3.46a3.49,3.49,0,1,1,0,7Z"/><line class="b" x1="800.43" y1="376.1" x2="800.39" y2="376.1"/><path d="M800.43,379.59h0a3.49,3.49,0,1,1,3.51-3.49A3.49,3.49,0,0,1,800.39,379.59Z"/><line class="b" x1="807.43" y1="355.15" x2="807.4" y2="355.15"/><path d="M807.43,358.65h0a3.5,3.5,0,1,1,3.5-3.5A3.5,3.5,0,0,1,807.4,358.65Z"/><path d="M852.81,358.65H817.94a3.5,3.5,0,0,1,0-7h34.87a3.5,3.5,0,1,1,0,7Z"/><path d="M449.74,155h-34.9a7,7,0,0,0-7,7v62.83a3.5,3.5,0,0,0,3.49,3.49v7a3.52,3.52,0,0,0,3.5,3.5h3.49a3.51,3.51,0,0,0,3.49-3.5v-7h20.94v7a3.51,3.51,0,0,0,3.49,3.5h3.49a3.52,3.52,0,0,0,3.5-3.5v-7a3.5,3.5,0,0,0,3.49-3.49V162A7,7,0,0,0,449.74,155Zm-34.9,7h34.9v24.43h-34.9Zm0,31.41h34.9v14h-34.9Zm0,27.93v-7h7l3.49,7Zm24.43,0,3.49-7h7v7Z"/><path d="M256.39,171a7,7,0,0,0-6.84-5.51h-3.07l-.42-1.68a7,7,0,0,0-6.77-5.31H218.76a7,7,0,0,0-6.77,5.31l-.42,1.68H208.5a7,7,0,0,0-6.85,5.51l-4.05,18.92v27.93a3.51,3.51,0,0,0,3.5,3.49h3.52v7a3.48,3.48,0,0,0,3.49,3.49h3.49a3.5,3.5,0,0,0,3.49-3.49v-7H243v7a3.48,3.48,0,0,0,3.49,3.49H250a3.5,3.5,0,0,0,3.49-3.49v-7H257a3.5,3.5,0,0,0,3.49-3.49V189.92Zm-51.8,43.36v-7h10.47l3.49,7Zm48.87,0h-14l3.49-7h10.47Zm0-14H204.59v-9.74l3.91-18.19h41.05l3.91,18.19Z"/><path d="M667,169.71a10.2,10.2,0,0,0-6.88-7.92c-4.75-1.57-12.64-3.29-24.54-3.29s-19.76,1.72-24.54,3.29a10.17,10.17,0,0,0-6.84,7.92,231.52,231.52,0,0,0-3.53,41.16c0,8.2,3.49,17.45,7,17.45h10L609.8,238.8h8.72l7.86-10.48h18.36l7.82,10.48h8.73l-7.82-10.48h10c3.49,0,7-9.25,7-17.45A236.52,236.52,0,0,0,667,169.71ZM621.6,214.36H607.88s-.25-2.3-.25-3.49,0-2.34,0-3.49H621.6Zm3.49-17.46h-17a214.48,214.48,0,0,1,3-26,3.27,3.27,0,0,1,2.17-2.55A58.56,58.56,0,0,1,625.09,166ZM646,166a56.9,56.9,0,0,1,11.87,2.41,3.24,3.24,0,0,1,2.2,2.51,222.13,222.13,0,0,1,3,26H646Zm17.21,48.35H649.52v-7h13.93c0,1.15,0,2.3,0,3.49A28.24,28.24,0,0,1,663.24,214.36Z"/><path d="M878.26,157.48a8.47,8.47,0,0,0-11.94,0l-51.21,51.28L800,210.92a3.49,3.49,0,0,0-1.09,6.57L811.79,224l6.49,12.92a3.51,3.51,0,0,0,3.11,1.92,2.64,2.64,0,0,0,.56,0,3.48,3.48,0,0,0,2.9-3L827,220.66l20.21-20.17,16.45,32.92a3.49,3.49,0,0,0,6.59-1.58v-7a3.13,3.13,0,0,0-.1-.8l-8.73-37.81,16.83-16.82A8.47,8.47,0,0,0,878.26,157.48ZM802.37,172.1l26.32,13.17,12.81-12.82-29.81-6.84a2.76,2.76,0,0,0-.77-.1h-7a3.48,3.48,0,0,0-1.57,6.59Z"/><path d="M614.62,548.32a3.5,3.5,0,0,1-3.49-3.49V482a3.49,3.49,0,0,1,3.49-3.49h41.89A3.49,3.49,0,0,1,660,482v62.84a3.49,3.49,0,0,1-6,2.46l-18.48-18.47-18.47,18.47A3.49,3.49,0,0,1,614.62,548.32Zm3.49-62.84V536.4l15-15a3.49,3.49,0,0,1,4.93,0l15,15V485.48Z"/><path d="M229,554a3.48,3.48,0,0,1-2.43-1c-8.71-8.47-29-30.3-29-50.08a31.42,31.42,0,0,1,62.83,0c0,19.81-20.27,41.62-29,50.08A3.48,3.48,0,0,1,229,554Zm0-75.49a24.46,24.46,0,0,0-24.43,24.43c0,15.74,16.45,34.48,24.44,42.64,8-8.15,24.43-26.87,24.43-42.64A24.46,24.46,0,0,0,229,478.5Z"/><path d="M229,520.38a17.46,17.46,0,1,1,17.46-17.45A17.47,17.47,0,0,1,229,520.38Zm0-27.92a10.47,10.47,0,1,0,10.48,10.47A10.48,10.48,0,0,0,229,492.46Z"/><path d="M429.69,475.2A17.37,17.37,0,0,0,419.31,481c-12.34,14,4.11,32.14,10.58,38.35a3.45,3.45,0,0,0,4.81,0c4.79-4.59,15.05-15.75,15.05-26.9A17.46,17.46,0,0,0,429.69,475.2Zm2.61,27.73a10.47,10.47,0,1,1,10.47-10.47h0A10.47,10.47,0,0,1,432.3,502.93Z"/><path d="M470.7,551.81H393.9a3.5,3.5,0,0,1-3.5-3.49V502.93a3.5,3.5,0,0,1,3.5-3.49h10.47a3.49,3.49,0,0,1,0,7h-7v38.4H467.2v-38.4h-7a3.49,3.49,0,0,1,0-7H470.7a3.49,3.49,0,0,1,3.49,3.49v45.39A3.5,3.5,0,0,1,470.7,551.81Z"/><path d="M870.25,555.3H814.39a3.48,3.48,0,0,1-3.49-3.49V506.42a3.5,3.5,0,0,1,3.49-3.49h0a3.49,3.49,0,0,1,3.49,3.49v41.9h48.88V485.48H835.34a3.49,3.49,0,1,1,0-7h34.91a3.48,3.48,0,0,1,3.49,3.49v69.82A3.49,3.49,0,0,1,870.25,555.3Z"/><path d="M824.86,482a3.49,3.49,0,0,1-3.49,3.49h-3.49V489a3.49,3.49,0,0,1-7,0v-3.5h-3.49a3.49,3.49,0,0,1,0-7h3.49V475a3.49,3.49,0,0,1,7,0v3.49h3.49A3.49,3.49,0,0,1,824.86,482Z"/><path d="M856.28,513.41H838.82a3.49,3.49,0,0,1,0-7h17.46a3.49,3.49,0,1,1,0,7Z"/><path d="M856.28,527.37H838.82a3.49,3.49,0,0,1,0-7h17.46a3.49,3.49,0,0,1,0,7Z"/><path d="M856.28,541.33H838.82a3.49,3.49,0,0,1,0-7h17.46a3.49,3.49,0,0,1,0,7Z"/><circle cx="828.36" cy="509.92" r="3.49"/><path d="M856.28,499.45H838.82a3.49,3.49,0,0,1,0-7h17.46a3.49,3.49,0,1,1,0,7Z"/><circle cx="828.36" cy="495.95" r="3.49"/><circle cx="828.36" cy="523.88" r="3.49"/><circle cx="828.36" cy="537.85" r="3.49"/></svg>