<svg xmlns="http://www.w3.org/2000/svg" viewBox="0 0 400 400">
   <defs>
      <style>
        .a{opacity:0.1;}
        .b,.d,.e{fill:none;}
        .b{stroke:currentColor;stroke-width:0.75px;}
        .b,.e{stroke-miterlimit:10;}
        .c{opacity:0.5;}
        .e{stroke:#ff4d4d;}
        .f{fill:#ff4d4d;}
      </style>
   </defs>
   <g class="a">
      <line class="b" x1="87.5" y1="50" x2="87.5" y2="350"/>
      <line class="b" x1="125" y1="50" x2="125" y2="350"/>
      <line class="b" x1="162.5" y1="50" x2="162.5" y2="350"/>
      <line class="b" x1="225" y1="50" x2="225" y2="350"/>
      <line class="b" x1="112.5" y1="50" x2="112.5" y2="350"/>
      <line class="b" x1="175" y1="50" x2="175" y2="350"/>
      <line class="b" x1="212.5" y1="50" x2="212.5" y2="350"/>
      <line class="b" x1="287.5" y1="50" x2="287.5" y2="350"/>
      <line class="b" x1="100" y1="50" x2="100" y2="350"/>
      <line class="b" x1="150" y1="50" x2="150" y2="350"/>
      <line class="b" x1="187.5" y1="50" x2="187.5" y2="350"/>
      <line class="b" x1="250" y1="50" x2="250" y2="350"/>
      <line class="b" x1="137.5" y1="50" x2="137.5" y2="350"/>
      <line class="b" x1="200" y1="50" x2="200" y2="350"/>
      <line class="b" x1="237.5" y1="50" x2="237.5" y2="350"/>
      <line class="b" x1="312.5" y1="50" x2="312.5" y2="350"/>
      <line class="b" x1="262.5" y1="50" x2="262.5" y2="350"/>
      <line class="b" x1="300" y1="50" x2="300" y2="350"/>
      <line class="b" x1="275" y1="50" x2="275" y2="350"/>
      <line class="b" x1="350" y1="87.5" x2="50" y2="87.5"/>
      <line class="b" x1="350" y1="125" x2="50" y2="125"/>
      <line class="b" x1="350" y1="162.5" x2="50" y2="162.5"/>
      <line class="b" x1="350" y1="225" x2="50" y2="225"/>
      <line class="b" x1="350" y1="112.5" x2="50" y2="112.5"/>
      <line class="b" x1="350" y1="175" x2="50" y2="175"/>
      <line class="b" x1="350" y1="212.5" x2="50" y2="212.5"/>
      <line class="b" x1="350" y1="287.5" x2="50" y2="287.5"/>
      <line class="b" x1="350" y1="100" x2="50" y2="100"/>
      <line class="b" x1="350" y1="150" x2="50" y2="150"/>
      <line class="b" x1="350" y1="187.5" x2="50" y2="187.5"/>
      <line class="b" x1="350" y1="250" x2="50" y2="250"/>
      <line class="b" x1="350" y1="137.5" x2="50" y2="137.5"/>
      <line class="b" x1="350" y1="200" x2="50" y2="200"/>
      <line class="b" x1="350" y1="237.5" x2="50" y2="237.5"/>
      <line class="b" x1="350" y1="312.5" x2="50" y2="312.5"/>
      <line class="b" x1="350" y1="262.5" x2="50" y2="262.5"/>
      <line class="b" x1="350" y1="300" x2="50" y2="300"/>
      <line class="b" x1="350" y1="275" x2="50" y2="275"/>
   </g>
   <g class="c">
      <rect class="b" x="50" y="50" width="300" height="300"/>
      <rect class="b" x="87.5" y="87.5" width="225" height="225" rx="0.37"/>
      <circle class="b" cx="200" cy="200" r="125"/>
      <rect class="b" x="75" y="100" width="250" height="200" rx="0.33"/>
      <rect class="b" x="75" y="100" width="250" height="200" rx="0.33" transform="translate(400 0) rotate(90)"/>
      <line class="b" x1="50" y1="50" x2="350" y2="350"/>
      <line class="b" x1="350" y1="50" x2="50" y2="350"/>
      <line class="b" x1="137.5" y1="50" x2="137.5" y2="350"/>
      <line class="b" x1="162.5" y1="50" x2="162.5" y2="350"/>
      <line class="b" x1="237.5" y1="50" x2="237.5" y2="350"/>
      <line class="b" x1="262.5" y1="50" x2="262.5" y2="350"/>
      <line class="b" x1="350" y1="137.5" x2="50" y2="137.5"/>
      <line class="b" x1="350" y1="162.5" x2="50" y2="162.5"/>
      <line class="b" x1="350" y1="237.5" x2="50" y2="237.5"/>
      <line class="b" x1="350" y1="262.5" x2="50" y2="262.5"/>
      <circle class="b" cx="200" cy="200" r="62.5"/>
      <circle class="b" cx="200" cy="200" r="37.5"/>
   </g>
   <rect class="d" x="50" y="50" width="299.84" height="299.84"/>
   <polygon points="199.85 187.49 199.85 187.74 199.6 187.61 199.85 187.49"/>
   <path d="M349.81,270.14l-50.6,67.09s-25-25-37.48-25c-24.74,0-37.23,24.61-61.84,25h-.63c-24.61-.38-37.1-25-61.84-25-12.49,0-37.48,25-37.48,25L50,270l139.77-62.08a25,25,0,0,1,20.31,0Z"/>
   <polygon points="199.6 187.61 199.23 187.74 199.23 187.49 199.6 187.61"/>
   <path d="M313.7,134A25,25,0,0,0,289,112.47H272.1l-7.75-31A25.07,25.07,0,0,0,240,62.5H159.66a25,25,0,0,0-24.22,18.91l-7.77,31.06H110.81A25,25,0,0,0,86.07,134L71.83,233l128.06-56.84L327.82,233Zm-154-46.48h80.45l6.25,25h-93Zm30.07,65.86-86.79,38.59,7.74-54.47H289l7.75,54.47L210,153.35A25,25,0,0,0,189.73,153.34Z"/>
   <path d="M370.05,76.48H367.3V82h-2.47V67.73h5a5.87,5.87,0,0,1,3.8,1.1A3.91,3.91,0,0,1,375,72a4.06,4.06,0,0,1-.68,2.39,4.44,4.44,0,0,1-1.92,1.48l3.19,5.92V82H372.9Zm-2.75-2h2.54a2.82,2.82,0,0,0,2-.63,2.2,2.2,0,0,0,.7-1.73,2.29,2.29,0,0,0-.65-1.76,2.73,2.73,0,0,0-1.94-.65h-2.6Z"/>
   <path d="M386.49,82h-9.56V80.32l4.73-5.17a11.42,11.42,0,0,0,1.46-1.91,3.09,3.09,0,0,0,.44-1.54,2.36,2.36,0,0,0-.57-1.64,2,2,0,0,0-1.54-.62,2.28,2.28,0,0,0-1.79.7,2.78,2.78,0,0,0-.63,1.92h-2.38a4.66,4.66,0,0,1,.59-2.33,4.06,4.06,0,0,1,1.69-1.62,5.47,5.47,0,0,1,2.54-.58,4.8,4.8,0,0,1,3.26,1,3.63,3.63,0,0,1,1.2,2.88,4.88,4.88,0,0,1-.6,2.23,12.7,12.7,0,0,1-2,2.65l-3.47,3.72h6.6Z"/>
   <path d="M199.26,27.84H189.7V26.21L194.43,21a11.42,11.42,0,0,0,1.46-1.91,3.09,3.09,0,0,0,.44-1.54,2.36,2.36,0,0,0-.57-1.64,2,2,0,0,0-1.54-.62,2.28,2.28,0,0,0-1.79.7A2.79,2.79,0,0,0,191.8,18h-2.38a4.67,4.67,0,0,1,.59-2.34A4.06,4.06,0,0,1,191.7,14a5.47,5.47,0,0,1,2.54-.58,4.8,4.8,0,0,1,3.26,1,3.63,3.63,0,0,1,1.2,2.88,4.88,4.88,0,0,1-.6,2.23,12.7,12.7,0,0,1-2,2.65l-3.47,3.72h6.6Z"/>
   <path d="M209.09,22.77h1.77v1.9h-1.77v3.17h-2.37V24.67h-6.14l-.07-1.44,6.13-9.61h2.45Zm-6.09,0h3.72V16.83l-.18.31Z"/>
   <path d="M19,206H9.44v-1.63l4.74-5.16a12,12,0,0,0,1.46-1.91,3.1,3.1,0,0,0,.43-1.54,2.34,2.34,0,0,0-.57-1.64,2,2,0,0,0-1.54-.63,2.3,2.3,0,0,0-1.79.71,2.78,2.78,0,0,0-.63,1.92H9.17a4.6,4.6,0,0,1,.59-2.34,4,4,0,0,1,1.69-1.61,5.28,5.28,0,0,1,2.53-.58,4.84,4.84,0,0,1,3.27,1,3.63,3.63,0,0,1,1.19,2.88,4.88,4.88,0,0,1-.6,2.23,12.35,12.35,0,0,1-2,2.65l-3.47,3.72H19Z"/>
   <path d="M28.83,200.94H30.6v1.9H28.83V206H26.46v-3.16H20.32l-.07-1.45,6.13-9.6h2.45Zm-6.09,0h3.72V195l-.18.31Z"/>
   <path d="M384.25,344.5h-9.56v-1.63l4.73-5.16a11.42,11.42,0,0,0,1.46-1.91,3.09,3.09,0,0,0,.44-1.54,2.34,2.34,0,0,0-.57-1.64,2,2,0,0,0-1.54-.62,2.28,2.28,0,0,0-1.79.7,2.78,2.78,0,0,0-.63,1.92h-2.38a4.73,4.73,0,0,1,.59-2.34,4.1,4.1,0,0,1,1.69-1.61,5.35,5.35,0,0,1,2.54-.58,4.8,4.8,0,0,1,3.26,1,3.6,3.6,0,0,1,1.2,2.88,4.88,4.88,0,0,1-.6,2.23,12.7,12.7,0,0,1-2,2.65l-3.47,3.72h6.6Z"/>
   <path d="M342.44,385.9h-9.56v-1.63l4.73-5.17a11.42,11.42,0,0,0,1.46-1.91,3.09,3.09,0,0,0,.44-1.54,2.36,2.36,0,0,0-.57-1.64,2,2,0,0,0-1.54-.62,2.28,2.28,0,0,0-1.79.7A2.78,2.78,0,0,0,335,376H332.6a4.73,4.73,0,0,1,.59-2.34,4.1,4.1,0,0,1,1.69-1.61,5.32,5.32,0,0,1,2.54-.58,4.8,4.8,0,0,1,3.26,1,3.61,3.61,0,0,1,1.2,2.88,4.88,4.88,0,0,1-.6,2.23,12.7,12.7,0,0,1-2,2.65L335.83,384h6.61Z"/>
   <line class="e" x1="356.64" y1="324.73" x2="370.01" y2="324.73"/>
   <line class="e" x1="356.64" y1="349.71" x2="370.01" y2="349.71"/>
   <line class="e" x1="363.33" y1="324.73" x2="363.33" y2="349.73"/>
   <line class="e" x1="324.73" y1="356.64" x2="324.73" y2="370.02"/>
   <line class="e" x1="349.7" y1="356.64" x2="349.7" y2="370.02"/>
   <line class="e" x1="324.73" y1="363.33" x2="349.73" y2="363.33"/>
   <line class="e" x1="350" y1="44.17" x2="350" y2="30.8"/>
   <line class="e" x1="50.25" y1="44.17" x2="50.25" y2="30.8"/>
   <line class="e" x1="350" y1="37.48" x2="50" y2="37.48"/>
   <line class="e" x1="44.17" y1="350" x2="30.79" y2="350"/>
   <line class="e" x1="44.17" y1="50.25" x2="30.79" y2="50.25"/>
   <line class="e" x1="37.48" y1="350" x2="37.48" y2="50"/>
   <circle class="e" cx="288.96" cy="137.46" r="25"/>
   <circle class="e" cx="240.15" cy="87.5" r="25"/>
   <path class="f" d="M240.15,87.5v-25A25,25,0,0,1,264.74,83Z"/>
   <circle class="e" cx="159.69" cy="87.48" r="25"/>
   <circle class="e" cx="110.67" cy="137.5" r="25"/>
   <circle class="e" cx="199.9" cy="176.13" r="25"/>
   <circle class="e" cx="199.9" cy="230.78" r="25"/>
   <circle class="e" cx="199.9" cy="312.5" r="25"/>
   <circle class="e" cx="139.75" cy="337.51" r="25"/>
   <circle class="e" cx="260.24" cy="337.51" r="25"/>
   <rect class="f" x="187.4" y="112.5" width="25" height="25"/>
   <rect class="f" x="324.9" y="325" width="25" height="25"/>
   <rect class="f" x="245.51" y="175.88" width="25" height="25" transform="translate(98.91 -88.65) rotate(24)"/>
   <rect class="f" x="294.81" y="165.09" width="25" height="25" transform="translate(-22.09 45.41) rotate(-8.16)"/>
   <line class="e" x1="261.8" y1="75" x2="357.31" y2="75"/>
</svg>