<svg id="Symbol" xmlns="http://www.w3.org/2000/svg" viewBox="0 0 24 24"><path d="M20.22,14.65a.75.75,0,0,1-.43.13.77.77,0,0,1-.62-.31l-.12-.18A8.25,8.25,0,1,1,5.39,6.45a.75.75,0,0,1,1.06,0,.76.76,0,0,1,0,1.06,6.75,6.75,0,1,0,11.15,6.54l-.13.09A.75.75,0,0,1,16.56,13l1.63-1.16a.75.75,0,0,1,1,.18L20.4,13.6A.75.75,0,0,1,20.22,14.65Z"/><path d="M11,13.25a.77.77,0,0,1-.3-.06.8.8,0,0,1-.41-.44l-3-8.5a.75.75,0,1,1,1.41-.5l2.74,7.75,2-.85A.76.76,0,0,1,14,12l-2.74,1.15A.72.72,0,0,1,11,13.25Z"/><path d="M15,7.46H12A.75.75,0,0,1,11.32,7a.74.74,0,0,1,.12-.8L13.35,4H12a.75.75,0,0,1,0-1.5h3a.75.75,0,0,1,.68.44.74.74,0,0,1-.12.8L13.65,6H15a.75.75,0,0,1,0,1.5Z"/><path d="M21,10.75H17a.75.75,0,0,1-.68-.42.77.77,0,0,1,.09-.8l3-3.78H17a.75.75,0,0,1,0-1.5h4a.75.75,0,0,1,.59,1.22l-3,3.78H21a.75.75,0,0,1,0,1.5Z"/></svg>