<svg xmlns="http://www.w3.org/2000/svg" viewBox="0 0 36 36"><rect x="12" y="19" width="3" height="4" rx="1"/><path d="M18,0A18,18,0,1,0,36,18,18,18,0,0,0,18,0ZM34,18a15.9,15.9,0,0,1-3.55,10L28,25.58V10.42L30.45,8A15.9,15.9,0,0,1,34,18ZM18,2A15.92,15.92,0,0,1,29.09,6.49L26.58,9H21a1,1,0,0,0,0,2h5V25H23V19a1,1,0,0,0-1-1H18a1,1,0,0,0-1,1v6H10V11h5a1,1,0,0,0,0-2H9.42L6.91,6.49A15.92,15.92,0,0,1,18,2ZM2,18A15.9,15.9,0,0,1,5.55,8L8,10.42V25.58L5.55,28A15.9,15.9,0,0,1,2,18ZM18,34A15.92,15.92,0,0,1,6.91,29.51L9.42,27H18a1,1,0,0,0,1-1V20h2v6a1,1,0,0,0,1,1h4.58l2.51,2.51A15.92,15.92,0,0,1,18,34Z"/><path d="M20.5,14a1,1,0,0,1-1,1h-3a1,1,0,0,1-1-1A2.51,2.51,0,0,1,17,11.71V7a1,1,0,0,1,2,0v4.71A2.51,2.51,0,0,1,20.5,14Z"/></svg>