<svg id="Symbol" xmlns="http://www.w3.org/2000/svg" viewBox="0 0 24 24"><path d="M10,19.25H9.33a.76.76,0,0,1-.74-.63L8.33,17a6.35,6.35,0,0,1-1.21-.7l-1.51.57a.76.76,0,0,1-.92-.32L3,13.68a.77.77,0,0,1,.18-1l1.25-1c0-.21,0-.44,0-.68a5.32,5.32,0,0,1,0-.69l-1.26-1A.76.76,0,0,1,3,8.32L4.69,5.43a.76.76,0,0,1,.92-.33l1.52.57A7.17,7.17,0,0,1,8.33,5l.26-1.6a.76.76,0,0,1,.74-.63h3.34a.75.75,0,0,1,.74.63L13.68,5a7.08,7.08,0,0,1,1.19.69l1.52-.57a.76.76,0,0,1,.92.33L19,8.32a.76.76,0,0,1-.18.95l-1.26,1a5.32,5.32,0,0,1,0,.69.75.75,0,0,1-1.5,0,4.4,4.4,0,0,0-.08-.87.79.79,0,0,1,.26-.71l1.1-.9-1-1.79L15,7.23a.78.78,0,0,1-.75-.13,4.78,4.78,0,0,0-1.49-.87.73.73,0,0,1-.49-.58L12,4.25H10l-.23,1.4a.73.73,0,0,1-.49.58,4.53,4.53,0,0,0-1.5.87A.78.78,0,0,1,7,7.23l-1.33-.5-1,1.79,1.1.9a.79.79,0,0,1,.26.71,4.4,4.4,0,0,0-.08.87,4.25,4.25,0,0,0,.07.84.75.75,0,0,1-.25.73l-1.1.9,1,1.79L7,14.77a.75.75,0,0,1,.76.13,4.68,4.68,0,0,0,1.5.87.73.73,0,0,1,.49.58l.26,1.4a.75.75,0,0,1,0,1.5Z"/><path d="M21,20.12l-4.33-7.5a.78.78,0,0,0-1.3,0L11,20.12a.77.77,0,0,0,0,.75.75.75,0,0,0,.65.38h8.66a.75.75,0,0,0,.65-.38A.77.77,0,0,0,21,20.12ZM15.38,15a.5.5,0,0,1,.5-.5h.24a.5.5,0,0,1,.5.5v2.5a.5.5,0,0,1-.5.5h-.24a.5.5,0,0,1-.5-.5ZM16,20a.75.75,0,1,1,.75-.75A.76.76,0,0,1,16,20Z"/><path d="M11,15.08A4.08,4.08,0,1,1,15.08,11a.75.75,0,0,1-1.5,0A2.58,2.58,0,1,0,11,13.58a2.94,2.94,0,0,0,.78-.11.75.75,0,0,1,.94.49.76.76,0,0,1-.5.94A4.14,4.14,0,0,1,11,15.08Z"/></svg>