<svg xmlns="http://www.w3.org/2000/svg" viewBox="0 0 24 24"><path d="M18.5,17H5a3,3,0,0,1-.39-6A4.52,4.52,0,0,1,9,7.5a4.89,4.89,0,0,1,.54,0A6,6,0,0,1,21,10a5.23,5.23,0,0,1-.09,1,3.49,3.49,0,0,1-2.41,6ZM5,13a1,1,0,0,0-1,1,1,1,0,0,0,1,1H18.5a1.5,1.5,0,0,0,.79-2.77l-.67-.4.22-.74A4.11,4.11,0,0,0,19,10a4,4,0,0,0-7.86-1l-.28,1.08-1-.41A2.39,2.39,0,0,0,9,9.5,2.5,2.5,0,0,0,6.5,12v1.36L5.2,13A.46.46,0,0,0,5,13Z"/><path d="M9,22a1,1,0,0,1-.44-.1,1,1,0,0,1-.45-1.34l1-2a1,1,0,0,1,1.79.89l-1,2A1,1,0,0,1,9,22Z"/><path d="M13,22a1,1,0,0,1-.44-.1,1,1,0,0,1-.45-1.34l1-2a1,1,0,0,1,1.79.89l-1,2A1,1,0,0,1,13,22Z"/></svg>