<svg id="Symbol" xmlns="http://www.w3.org/2000/svg" viewBox="0 0 23.97 23.97"><path d="M12.82,15.72h-.08a.74.74,0,0,1-.66-.65l-.93-7.41-1.09,5.47a.75.75,0,0,1-.74.6H5.82a.75.75,0,1,1,0-1.5H8.71l1.88-9.4a.72.72,0,0,1,.76-.6.75.75,0,0,1,.72.66l1.12,9,.43-1.16a.78.78,0,0,1,.67-.48.76.76,0,0,1,.71.41l.79,1.59h3a.75.75,0,0,1,0,1.5h-3.5a.75.75,0,0,1-.67-.42l-.23-.46-.89,2.39A.76.76,0,0,1,12.82,15.72Z"/><path d="M21.32,4.22H14.09a.75.75,0,0,0,0,1.5h6.48v1H14.38a.75.75,0,1,0,0,1.5h6.19v8.5H4.07V8.22H7.92a.75.75,0,0,0,0-1.5H4.07v-1H8.42a.75.75,0,0,0,0-1.5H3.32A.76.76,0,0,0,2.57,5v12.5a.76.76,0,0,0,.75.75H9.57v1H8.32a.75.75,0,0,0,0,1.5h8a.75.75,0,0,0,0-1.5H15.07v-1h6.25a.76.76,0,0,0,.75-.75V5A.76.76,0,0,0,21.32,4.22Zm-7.75,15h-2.5v-1h2.5Z"/></svg>