<svg xmlns="http://www.w3.org/2000/svg" viewBox="0 0 24 24"><path d="M22.94,13a4.34,4.34,0,0,0,.1-1,5,5,0,0,0-8.88-3.15A4.44,4.44,0,0,0,11.84,8,5.5,5.5,0,0,0,1,9.5a5.42,5.42,0,0,0,.33,1.9A4,4,0,0,0,1,13v.06A3.45,3.45,0,0,0,0,15.5,3.5,3.5,0,0,0,3.54,19h17a3.49,3.49,0,0,0,2.4-6ZM3.54,17a1.5,1.5,0,0,1-.88-2.71l.52-.37-.12-.63A1.42,1.42,0,0,1,3,13a1.93,1.93,0,0,1,.29-1l.29-.48L3.37,11A3.33,3.33,0,0,1,3,9.5a3.5,3.5,0,0,1,7-.36l.11,1.07L11.19,10a2.06,2.06,0,0,1,.35,0,2.51,2.51,0,0,1,1.68.65c0,.15-.07.3-.1.45a4,4,0,0,0-1.82,1,3.27,3.27,0,0,0-.76-.08A3.5,3.5,0,0,0,7,15.5,3.41,3.41,0,0,0,7.38,17Zm17,0h-10a1.5,1.5,0,0,1,0-3,1.61,1.61,0,0,1,.64.14l.75.35.49-.67A2,2,0,0,1,14,13h1V12a3,3,0,0,1,3-3,3,3,0,0,1,3,3,2.68,2.68,0,0,1-.18,1l-.3.79.73.43A1.49,1.49,0,0,1,20.54,17Z"/></svg>