<svg id="Symbol" xmlns="http://www.w3.org/2000/svg" viewBox="0 0 24 24"><path d="M19,7.94,18,9c0,.18,0,.36,0,.55a.75.75,0,0,1-1.5,0,3.69,3.69,0,0,0-.06-.69.76.76,0,0,1,.22-.67l.9-.87L16.71,5.8l-1.2.35A.76.76,0,0,1,14.83,6a4.33,4.33,0,0,0-1.21-.69.76.76,0,0,1-.47-.52l-.3-1.22h-1.7l-.3,1.22a.76.76,0,0,1-.47.52A4.33,4.33,0,0,0,9.17,6a.76.76,0,0,1-.68.15L7.29,5.8,6.44,7.27l.9.87a.76.76,0,0,1,.22.67,3.69,3.69,0,0,0-.06.69A.75.75,0,0,1,6,9.5C6,9.31,6,9.13,6,9l-1-1A.75.75,0,0,1,4.85,7L6.28,4.54a.76.76,0,0,1,.86-.34l1.4.4a5.33,5.33,0,0,1,1-.55l.35-1.41a.74.74,0,0,1,.73-.57h2.86a.74.74,0,0,1,.73.57l.35,1.41a5.33,5.33,0,0,1,1,.55l1.4-.4a.75.75,0,0,1,.86.34L19.15,7A.75.75,0,0,1,19,7.94Z"/><path d="M15.25,9.5a.75.75,0,0,1-1.5,0,1.75,1.75,0,0,0-3.5,0,.75.75,0,0,1-1.5,0,3.25,3.25,0,0,1,6.5,0Z"/><path d="M22.62,14.58l-2-3a.75.75,0,0,0-.62-.33H4a.75.75,0,0,0-.62.33l-2,3A.75.75,0,0,0,2,15.75H3.25V21a.76.76,0,0,0,.75.75H20a.76.76,0,0,0,.75-.75V15.75H22a.75.75,0,0,0,.62-1.17ZM3.4,14.25l1-1.5h6.2l-1,1.5Zm7.85,6H4.75v-4.5H10a.75.75,0,0,0,.62-.33l.63-.94Zm8,0h-6.5V14.48l.63.94a.75.75,0,0,0,.62.33h5.25Zm-4.85-6-1-1.5h6.2l1,1.5Z"/></svg>