<svg id="Symbol" xmlns="http://www.w3.org/2000/svg" viewBox="0 0 23.97 23.97"><path d="M17.5,19.66H13.23a.75.75,0,0,1-.65-.38.74.74,0,0,1,0-.76,1.19,1.19,0,0,0,.17-.61,1.25,1.25,0,1,0-2.33.62.76.76,0,0,1-.65,1.13H5.5a.75.75,0,0,1-.75-.75V14.64A.73.73,0,0,1,5.13,14a.72.72,0,0,1,.75,0,1.2,1.2,0,0,0,.62.17,1.25,1.25,0,0,0,0-2.5,1.19,1.19,0,0,0-.62.16.75.75,0,0,1-.75,0,.76.76,0,0,1-.38-.66V6.91a.74.74,0,0,1,.75-.75H8.85a2.76,2.76,0,1,1,5.29,0H17.5a.75.75,0,0,1,.75.75v3.26a2.75,2.75,0,1,1,0,5.47v3.27A.76.76,0,0,1,17.5,19.66Zm-3.26-1.5h2.51V14.64a.73.73,0,0,1,.38-.65.72.72,0,0,1,.75,0,1.2,1.2,0,0,0,.62.17,1.25,1.25,0,0,0,0-2.5,1.19,1.19,0,0,0-.62.16.75.75,0,0,1-.75,0,.76.76,0,0,1-.38-.66V7.66H12.81a.75.75,0,0,1-.49-1.32,1.25,1.25,0,1,0-2.07-.93,1.22,1.22,0,0,0,.43.93.74.74,0,0,1,.21.83.76.76,0,0,1-.7.49H6.25v2.51a2.75,2.75,0,1,1,0,5.47v2.52H8.76a2.18,2.18,0,0,1,0-.25,2.75,2.75,0,0,1,5.5,0C14.25,18,14.24,18.07,14.24,18.16Z"/></svg>