<svg id="Symbol" xmlns="http://www.w3.org/2000/svg" viewBox="0 0 24 24"><path d="M21,10.75H14a.76.76,0,0,1-.75-.75V3A.76.76,0,0,1,14,2.25h7a.76.76,0,0,1,.75.75v7A.76.76,0,0,1,21,10.75Zm-6.25-1.5h5.5V3.75h-5.5Z"/><path d="M10,10.75H3A.76.76,0,0,1,2.25,10V3A.76.76,0,0,1,3,2.25h7a.76.76,0,0,1,.75.75v7A.76.76,0,0,1,10,10.75ZM3.75,9.25h5.5V3.75H3.75Z"/><path d="M10,21.75H3A.76.76,0,0,1,2.25,21V14A.76.76,0,0,1,3,13.25h7a.76.76,0,0,1,.75.75v7A.76.76,0,0,1,10,21.75Zm-6.25-1.5h5.5v-5.5H3.75Z"/><path d="M14,16.25a.76.76,0,0,1-.75-.75V14a.76.76,0,0,1,.75-.75h1.5a.75.75,0,0,1,0,1.5h-.75v.75A.76.76,0,0,1,14,16.25Z"/><path d="M21.75,14v3a.75.75,0,0,1-1.5,0V14.75H18a.75.75,0,0,1,0-1.5h3A.75.75,0,0,1,21.75,14Z"/><path d="M17.75,21a.76.76,0,0,1-.75.75H14a.76.76,0,0,1-.75-.75V18a.75.75,0,0,1,1.5,0v2.25H17A.75.75,0,0,1,17.75,21Z"/><path d="M21,21.75H19.5a.75.75,0,0,1,0-1.5h.75V19.5a.75.75,0,0,1,1.5,0V21A.76.76,0,0,1,21,21.75Z"/><rect x="5.75" y="5.75" width="1.5" height="1.5"/><rect x="5" y="5" width="3" height="3" rx="0.75"/><rect x="16.75" y="5.75" width="1.5" height="1.5"/><rect x="16" y="5" width="3" height="3" rx="0.75"/><rect x="5.75" y="16.75" width="1.5" height="1.5"/><rect x="5" y="16" width="3" height="3" rx="0.75"/></svg>