<svg xmlns="http://www.w3.org/2000/svg" viewBox="0 0 24 24"><path d="M18.57,17H5.07a3,3,0,0,1-.38-6A4.5,4.5,0,0,1,9.07,7.5a4.63,4.63,0,0,1,.54,0A6,6,0,0,1,21.07,10,6.35,6.35,0,0,1,21,11a3.5,3.5,0,0,1-2.42,6ZM5.07,13a1,1,0,0,0-1,1,1,1,0,0,0,1,1h13.5a1.5,1.5,0,0,0,1.5-1.5,1.48,1.48,0,0,0-.71-1.27l-.67-.4.22-.75A3.62,3.62,0,0,0,19.07,10a4,4,0,0,0-7.85-1l-.28,1.09-1-.41a2.35,2.35,0,0,0-.82-.14A2.5,2.5,0,0,0,6.57,12v1.36L5.28,13Z"/><path d="M7.07,22a.93.93,0,0,1-.45-.11,1,1,0,0,1-.44-1.34l1-2a1,1,0,0,1,1.34-.45A1,1,0,0,1,9,19.45l-1,2A1,1,0,0,1,7.07,22Z"/><path d="M11.07,22a.93.93,0,0,1-.45-.11,1,1,0,0,1-.44-1.34l1-2a1,1,0,0,1,1.34-.45A1,1,0,0,1,13,19.45l-1,2A1,1,0,0,1,11.07,22Z"/><path d="M15.07,22a.93.93,0,0,1-.45-.11,1,1,0,0,1-.44-1.34l1-2a1,1,0,0,1,1.34-.45A1,1,0,0,1,17,19.45l-1,2A1,1,0,0,1,15.07,22Z"/></svg>