<svg id="Symbol" xmlns="http://www.w3.org/2000/svg" viewBox="0 0 24 24"><path d="M19.53,6.47l-4-4a.76.76,0,0,0-.38-.21H5A.76.76,0,0,0,4.25,3V20a.76.76,0,0,0,.75.75h9.5a.75.75,0,0,0,0-1.5H5.75V3.75h8.5V7a.76.76,0,0,0,.75.75h3.25v7.73a.75.75,0,1,0,1.5,0V7A.77.77,0,0,0,19.53,6.47Zm-3.78-.22V4.81l1.44,1.44Z"/><path d="M20.53,20.47l-5-5A4.16,4.16,0,0,0,16.25,13,4.25,4.25,0,1,0,12,17.26a4.19,4.19,0,0,0,2.43-.78l5,5.05a.79.79,0,0,0,.53.22.75.75,0,0,0,.53-.22A.74.74,0,0,0,20.53,20.47ZM9.25,13A2.75,2.75,0,1,1,12,15.76,2.75,2.75,0,0,1,9.25,13Z"/></svg>