<svg id="Symbol" xmlns="http://www.w3.org/2000/svg" viewBox="0 0 24 24"><path d="M17,12.25A4.75,4.75,0,1,0,21.75,17,4.75,4.75,0,0,0,17,12.25Zm3,4.87a.5.5,0,0,1-.5.5h-5a.5.5,0,0,1-.5-.5v-.25a.5.5,0,0,1,.5-.5h5a.5.5,0,0,1,.5.5Z"/><path d="M3,17.26a.72.72,0,0,1-.29-.06.76.76,0,0,1-.47-.7V6A.76.76,0,0,1,3,5.24H18a.76.76,0,0,1,.76.76v4a.76.76,0,0,1-1.52,0V6.76H3.76v7.91l.7-.71A.79.79,0,0,1,5,13.74h5.5a.76.76,0,0,1,0,1.52H5.31L3.54,17A.79.79,0,0,1,3,17.26Z"/><path d="M15.5,9.76H5.5a.76.76,0,0,1,0-1.52h10a.76.76,0,0,1,0,1.52Z"/><path d="M12.5,12.26h-7a.76.76,0,0,1,0-1.52h7a.76.76,0,0,1,0,1.52Z"/></svg>