<svg id="Symbol" xmlns="http://www.w3.org/2000/svg" viewBox="0 0 24 24"><path d="M3,17.26a.72.72,0,0,1-.29-.06.76.76,0,0,1-.47-.7V6A.76.76,0,0,1,3,5.24H18a.76.76,0,0,1,.76.76v5a.76.76,0,0,1-1.52,0V6.76H3.76v7.91l.7-.71A.79.79,0,0,1,5,13.74h6.5a.76.76,0,0,1,0,1.52H5.31L3.54,17A.79.79,0,0,1,3,17.26Z"/><path d="M15.5,9.76H5.5a.76.76,0,0,1,0-1.52h10a.76.76,0,0,1,0,1.52Z"/><path d="M13.5,12.26h-8a.76.76,0,0,1,0-1.52h8a.76.76,0,0,1,0,1.52Z"/><path d="M21,20.12l-4.33-7.5a.78.78,0,0,0-1.3,0L11,20.12a.77.77,0,0,0,0,.75.75.75,0,0,0,.65.38h8.66a.75.75,0,0,0,.65-.38A.77.77,0,0,0,21,20.12ZM15.38,15a.5.5,0,0,1,.5-.5h.24a.5.5,0,0,1,.5.5v2.5a.5.5,0,0,1-.5.5h-.24a.5.5,0,0,1-.5-.5ZM16,20a.75.75,0,1,1,.75-.75A.76.76,0,0,1,16,20Z"/></svg>