<svg id="Symbol" xmlns="http://www.w3.org/2000/svg" viewBox="0 0 24 24"><path d="M19.35,2.25H4.65A.75.75,0,0,0,3.9,3V13.05c0,6.78,7.57,9.08,7.89,9.17a.75.75,0,0,0,.42,0c.32-.09,7.89-2.39,7.89-9.17V3A.75.75,0,0,0,19.35,2.25Zm-.75,10.8c0,5.08-5.45,7.26-6.6,7.66-1.15-.4-6.6-2.56-6.6-7.66V3.75H18.6Z"/><path d="M15.5,9.75h-.25V8a3.25,3.25,0,0,0-6.5,0V9.75H8.5a.76.76,0,0,0-.75.75V16a.76.76,0,0,0,.75.75h7a.76.76,0,0,0,.75-.75V10.5A.76.76,0,0,0,15.5,9.75Zm-3,3.17V14.5a.5.5,0,0,1-1,0V12.92a1,1,0,0,1-.5-.86,1,1,0,0,1,.42-.81,1,1,0,0,1,.58-.19,1,1,0,0,1,1,1A1,1,0,0,1,12.5,12.92Zm1.25-3.17h-3.5V8a1.75,1.75,0,0,1,3.5,0Z"/></svg>