<svg id="Symbol" xmlns="http://www.w3.org/2000/svg" viewBox="0 0 24 24"><path d="M18.5,21.75H5.5A.76.76,0,0,1,4.75,21V3a.76.76,0,0,1,.75-.75h13a.76.76,0,0,1,.75.75V21A.76.76,0,0,1,18.5,21.75ZM6.25,20.25h11.5V3.75H6.25Z"/><path d="M15.15,19.25H9a.75.75,0,0,1,0-1.5h6.15a.75.75,0,0,1,0,1.5Z"/><path d="M15.15,17.25H9a.75.75,0,0,1,0-1.5h6.15a.75.75,0,0,1,0,1.5Z"/><path d="M14.15,10.43a3.25,3.25,0,1,0-4.3,0,3.74,3.74,0,0,0-1.6,3.07V14a.76.76,0,0,0,.75.75h6a.76.76,0,0,0,.75-.75v-.5A3.74,3.74,0,0,0,14.15,10.43ZM10.25,8A1.75,1.75,0,1,1,12,9.75,1.76,1.76,0,0,1,10.25,8Zm-.49,5.25a2.25,2.25,0,0,1,4.48,0Z"/></svg>