<svg id="Symbol" xmlns="http://www.w3.org/2000/svg" viewBox="0 0 24 24"><path d="M12.5,16.75h-.09a.75.75,0,0,1-.65-.66l-.93-7.41L9.74,14.15a.75.75,0,0,1-.74.6H5.5a.75.75,0,0,1,0-1.5H8.38l1.88-9.4a.75.75,0,0,1,1.48.06l1.13,9,.43-1.15a.74.74,0,0,1,1.37-.07l.79,1.58h3a.75.75,0,0,1,0,1.5H15a.75.75,0,0,1-.67-.42l-.23-.46-.9,2.39A.74.74,0,0,1,12.5,16.75Z"/><path d="M21,19.25a.76.76,0,0,0,.75-.75V6A.76.76,0,0,0,21,5.25H13.77a.75.75,0,0,0,0,1.5h6.48v11H3.75V9.25H7.6a.75.75,0,1,0,0-1.5H3.75v-1H8.1a.75.75,0,0,0,0-1.5H3A.76.76,0,0,0,2.25,6V18.5a.76.76,0,0,0,.75.75Zm-10.25,1"/><path d="M20.25,7.75v1.5H14.06a.75.75,0,0,1,0-1.5Z"/></svg>