<svg id="Symbol" xmlns="http://www.w3.org/2000/svg" viewBox="0 0 24 24"><path d="M7,20.75H3A.76.76,0,0,1,2.25,20V16A.76.76,0,0,1,3,15.25H7a.76.76,0,0,1,.75.75v4A.76.76,0,0,1,7,20.75Zm-3.25-1.5h2.5v-2.5H3.75Z"/><path d="M14,20.75H10A.76.76,0,0,1,9.25,20V16a.76.76,0,0,1,.75-.75h4a.76.76,0,0,1,.75.75v4A.76.76,0,0,1,14,20.75Zm-3.25-1.5h2.5v-2.5h-2.5Z"/><path d="M14,8.75H10A.76.76,0,0,1,9.25,8V4A.76.76,0,0,1,10,3.25h4a.76.76,0,0,1,.75.75V8A.76.76,0,0,1,14,8.75Zm-3.25-1.5h2.5V4.75h-2.5Z"/><path d="M21,20.75H17a.76.76,0,0,1-.75-.75V16a.76.76,0,0,1,.75-.75h4a.76.76,0,0,1,.75.75v4A.76.76,0,0,1,21,20.75Zm-3.25-1.5h2.5v-2.5h-2.5Z"/><path d="M19.75,12v2a.75.75,0,0,1-1.5,0V12.75h-5.5V14a.75.75,0,0,1-1.5,0V12.75H5.75V14a.75.75,0,0,1-1.5,0V12A.76.76,0,0,1,5,11.25h6.25V10a.75.75,0,0,1,1.5,0v1.25H19A.76.76,0,0,1,19.75,12Z"/></svg>