<svg xmlns="http://www.w3.org/2000/svg" viewBox="0 0 36 36"><path d="M30,22a.34.34,0,0,1,0,.1v-.2A.34.34,0,0,1,30,22Z"/><path d="M18,0A18,18,0,1,0,36,18,18,18,0,0,0,18,0Zm0,34A16,16,0,1,1,34,18,16,16,0,0,1,18,34Z"/><path d="M29,10H20a1,1,0,0,0-1,1V25a1,1,0,0,0,1,1v1a1,1,0,0,0,2,0V26h5v1a1,1,0,0,0,2,0V26a1,1,0,0,0,1-1V11A1,1,0,0,0,29,10ZM21,24V23h1.77l.33,1Zm7,0H25.89l.33-1H28Zm0-3H21V18h7Zm0-5H21V12h7Z"/><path d="M18,19.73l-1-3.5a1,1,0,0,0-1-.73H15a1,1,0,0,0-1-1H10a1,1,0,0,0-1,1H8.05a1,1,0,0,0-1,.71L6,19.71A.93.93,0,0,0,6,20v5a1,1,0,0,0,1,1H7.5v1a1,1,0,0,0,2,0V26h5v1a1,1,0,0,0,2,0V26H17a1,1,0,0,0,1-1V20A1.26,1.26,0,0,0,18,19.73ZM8,24V23h2.29l.33,1Zm8,0H13.39l.33-1H16Zm0-3H8v-.85L8.8,17.5h6.45L16,20.14Z"/></svg>