<svg id="Symbol" xmlns="http://www.w3.org/2000/svg" viewBox="0 0 24 24"><path d="M15.5,12.25A4.75,4.75,0,1,0,20.25,17,4.75,4.75,0,0,0,15.5,12.25Zm.62,7.25a.5.5,0,0,1-.5.5h-.24a.5.5,0,0,1-.5-.5v-3a.5.5,0,0,1,.5-.5h.24a.5.5,0,0,1,.5.5Zm-.62-4a.75.75,0,1,1,.75-.75A.76.76,0,0,1,15.5,15.5Z"/><path d="M13.48,10.76a5.15,5.15,0,0,0-2.05-1.91A3.75,3.75,0,1,0,5.25,6,3.69,3.69,0,0,0,6.58,8.85,5.23,5.23,0,0,0,3.75,13.5V19a.76.76,0,0,0,.75.75h5a.75.75,0,0,0,0-1.5H5.25V13.5a3.75,3.75,0,0,1,7-2,.75.75,0,0,0,1.28-.78ZM6.75,6A2.25,2.25,0,1,1,9,8.25,2.25,2.25,0,0,1,6.75,6Z"/></svg>