<svg xmlns="http://www.w3.org/2000/svg" viewBox="0 0 24 24"><circle cx="13.38" cy="2.04" r="2.04"/><path d="M19.91,11.76a.89.89,0,0,1-.88.72h-.18l-3.46-.71a.88.88,0,0,1-.63-.47l-1-2-.62,3.59,3,3.17a1.13,1.13,0,0,1,.34.81v6a1.2,1.2,0,1,1-2.4,0V17.3L11,14.05a.16.16,0,0,1-.06-.08l-.58,4.1a1.47,1.47,0,0,1-.26.6L6.19,23.33a1.17,1.17,0,0,1-.92.43,1.13,1.13,0,0,1-.77-.28,1.19,1.19,0,0,1-.15-1.69L8,17.4l.74-5.24a.75.75,0,0,0,0-.16L10,7.67l-1.44.77L6.85,11.7a.9.9,0,1,1-1.6-.82l1.8-3.51A.84.84,0,0,1,7.43,7l3.85-2.06a.9.9,0,0,1,.66-.07l1.44.39a.91.91,0,0,1,.55.46l2.24,4.38,3,.62A.9.9,0,0,1,19.91,11.76Z"/></svg>