<svg xmlns="http://www.w3.org/2000/svg" viewBox="0 0 24 24"><path d="M11,16a2,2,0,1,1-3-1.74V14a1,1,0,0,1,1-1H9a1,1,0,0,1,1,1v.28A2,2,0,0,1,11,16Z"/><path d="M22,15.71a1,1,0,0,0-1.39-.28l-1.35.89-.7-.4,0-1.78.71-.43,1.31.86a1,1,0,0,0,.55.16,1,1,0,0,0,.84-.45,1,1,0,0,0-.29-1.38l-.5-.33.34-.21a1,1,0,0,0-1-1.72l-.32.19,0-.62a1,1,0,1,0-2,.12L18.3,12l-.67.4-1.62-1v-.83l1.44-.72a1,1,0,0,0-.9-1.78L16,8.38V8a1,1,0,1,0-2,0v.39l-.56-.28A1.06,1.06,0,0,0,13,8V5A4,4,0,0,0,5,5v8a5,5,0,1,0,8.45,5.27l.55.31v.8l-1.45.72a1,1,0,0,0-.45,1.35A1,1,0,0,0,13,22a.93.93,0,0,0,.45-.11l.55-.27V22a1,1,0,0,0,2,0v-.38l.55.27a1,1,0,0,0,.9-1.79L16,19.38v-.81l1.58-.92.71.41-.09,1.61a1,1,0,0,0,.93,1.06h.07a1,1,0,0,0,1-.94l0-.61.33.19a1,1,0,1,0,1-1.74l-.33-.19.51-.34A1,1,0,0,0,22,15.71ZM12,16.55a.43.43,0,0,0,0,.05A3,3,0,0,1,6,16a3.06,3.06,0,0,1,.75-2L7,13.73V5a2,2,0,0,1,3.41-1.41A2,2,0,0,1,11,5v8.73l.25.28c.1.12.19.24.28.37l.06.11A3,3,0,0,1,12,16,3.31,3.31,0,0,1,12,16.55ZM13,12V10.12l1,.5v.79Zm3.59,3.93-1.6.92-1-.58A1.1,1.1,0,0,0,14,16a5,5,0,0,0-.43-2L15,13.16l1.64,1Z"/></svg>