<svg xmlns="http://www.w3.org/2000/svg" viewBox="0 0 24 24"><path d="M20.51,19H15a1,1,0,0,1,0-2h5.51a1.5,1.5,0,0,0,.3-3l-.8-.16v-.82a2.46,2.46,0,0,0-.49-1.53L19,10.89l.51-.61A2,2,0,0,0,20,9a2,2,0,0,0-4,0,1,1,0,0,1-2,0,4,4,0,1,1,8,0,4.09,4.09,0,0,1-.5,1.94A4.69,4.69,0,0,1,22,12.31,3.5,3.5,0,0,1,20.51,19Z"/><path d="M18,16H13a1,1,0,1,1,0-2h5a1,1,0,1,1,0,2Z"/><path d="M7,16H5a1,1,0,1,1,0-2H7a1,1,0,0,1,0,2Z"/><path d="M12,19H8a1,1,0,1,1,0-2h4a1,1,0,0,1,0,2Z"/><path d="M12,10H9A1,1,0,1,1,9,8h3a1,1,0,0,1,0,2Z"/><path d="M10,16h0a1,1,0,1,1,1-1A1,1,0,0,1,10,16Z"/><path d="M5,19H4a1,1,0,0,1,0-2H5a1,1,0,1,1,0,2Z"/><path d="M1,19H1a1,1,0,1,1,1-1A1,1,0,0,1,1,19Z"/><path d="M3,13H3a1,1,0,1,1,1-1A1,1,0,0,1,3,13Z"/><path d="M16,13H6a1,1,0,0,1,0-2H16a1,1,0,0,1,0,2Z"/></svg>