<svg xmlns="http://www.w3.org/2000/svg" viewBox="0 0 24 24"><path d="M11,16a2,2,0,0,1-4,0,2,2,0,0,1,1-1.73V5a1,1,0,0,1,2,0v9.28A2,2,0,0,1,11,16Z"/><path d="M15,9a5,5,0,0,0-2,.42V5A4,4,0,0,0,5,5v8a5,5,0,1,0,8.21,5.68A5.15,5.15,0,0,0,15,19,5,5,0,0,0,15,9Zm-3.14,7.89a.88.88,0,0,1,0,.15,3,3,0,1,1-5.06-3L7,13.73V5a2,2,0,0,1,3.41-1.41A2,2,0,0,1,11,5v8.73l.24.28A3,3,0,0,1,12,16,2.91,2.91,0,0,1,11.86,16.89ZM15,17a3,3,0,0,1-1.07-.2A4.25,4.25,0,0,0,14,16a5.08,5.08,0,0,0-1-3V11.77A3,3,0,0,1,15,11a3,3,0,0,1,0,6Z"/><path d="M15,8a1,1,0,0,1-1-1V6a1,1,0,0,1,2,0V7A1,1,0,0,1,15,8Z"/><path d="M20,10.05a1,1,0,0,1-.71-.29,1,1,0,0,1,0-1.42l.71-.7a1,1,0,1,1,1.41,1.41l-.71.71A1,1,0,0,1,20,10.05Z"/><path d="M15,23a1,1,0,0,1-1-1V21a1,1,0,0,1,2,0v1A1,1,0,0,1,15,23Z"/><path d="M23,15H22a1,1,0,0,1,0-2h1a1,1,0,0,1,0,2Z"/><path d="M20.65,20.66a1,1,0,0,1-.7-.3l-.71-.7a1,1,0,0,1,0-1.42,1,1,0,0,1,1.41,0l.71.71a1,1,0,0,1-.71,1.71Z"/></svg>