<svg xmlns="http://www.w3.org/2000/svg" viewBox="0 0 24 24"><path d="M21,4.21a2.93,2.93,0,0,0-2-2.27A22.49,22.49,0,0,0,12,1a22.6,22.6,0,0,0-7,.94A2.92,2.92,0,0,0,3,4.21,66.44,66.44,0,0,0,2,16c0,2.35,1,5,2,5H6.87L4.62,24h2.5l2.25-3h5.26l2.24,3h2.5l-2.24-3H20c1,0,2-2.65,2-5A67.69,67.69,0,0,0,21,4.21ZM8,17H4.07S4,16.34,4,16s0-.67,0-1H8Zm1-5H4.12A61.29,61.29,0,0,1,5,4.56a.93.93,0,0,1,.62-.73A16.6,16.6,0,0,1,9,3.15Zm6-8.85a16.33,16.33,0,0,1,3.4.69.93.93,0,0,1,.63.72A63.43,63.43,0,0,1,19.88,12H15ZM19.93,17H16V15h4c0,.33,0,.66,0,1A8.12,8.12,0,0,1,19.93,17Z"/></svg>