<svg xmlns="http://www.w3.org/2000/svg" viewBox="0 0 36 36"><path d="M18,0A18,18,0,1,0,36,18,18,18,0,0,0,18,0Zm0,34A16,16,0,1,1,34,18,16,16,0,0,1,18,34Z"/><path d="M24.43,11.57a6.12,6.12,0,0,0-5.2-.18,3.39,3.39,0,0,1,.51-.72,1,1,0,1,0-1.48-1.34A5.73,5.73,0,0,0,17,11.48c-1.61-.6-3.71-1-5.44.09S9,14.78,9,18c0,5.39,2.38,7.44,3.81,8.19a5.58,5.58,0,0,0,2.57.63A5.64,5.64,0,0,0,18,26.17a5.6,5.6,0,0,0,5.2,0c1.42-.75,3.8-2.8,3.8-8.19C27,14.78,26.14,12.61,24.43,11.57ZM22.27,24.42a3.61,3.61,0,0,1-3.61-.18l-.09-.06-.15-.09a.64.64,0,0,0-.18-.06,1,1,0,0,0-.48,0,.64.64,0,0,0-.18.06l-.24.15a3.61,3.61,0,0,1-3.61.18C12,23.49,11,21.21,11,18c0-1.71.28-3.91,1.62-4.73s3-.24,4.14.25a6.52,6.52,0,0,0,.3,1.81A1,1,0,0,0,18,16a1,1,0,0,0,.33-.06,1,1,0,0,0,.61-1.27,4.19,4.19,0,0,1-.17-.94c1.11-.52,3.22-1.31,4.61-.46S25,16.29,25,18C25,21.21,24,23.49,22.27,24.42Z"/></svg>