<svg xmlns="http://www.w3.org/2000/svg" viewBox="0 0 24 24"><path d="M22.5,13.4a4.49,4.49,0,0,0-.76-2.4H22a1,1,0,0,0,0-2H21a1,1,0,0,0-.87.53h0a4.17,4.17,0,0,0-1.21-.44A5,5,0,0,0,9.73,7.38,4.49,4.49,0,0,0,2,10.5a4.23,4.23,0,0,0,.22,1.37,3.58,3.58,0,0,0-.67,1.5A3,3,0,0,0,3,19H21a3,3,0,0,0,1.5-5.6ZM14,7a3,3,0,0,1,2.87,2.15,4.46,4.46,0,0,0-2.22,1.35,3.94,3.94,0,0,0-1.24.13,5.26,5.26,0,0,0-2.31-1.39A3,3,0,0,1,14,7ZM3,17a1,1,0,0,1-.25-2l.75-.26V14A1.49,1.49,0,0,1,4,12.85l.6-.51-.36-.71A2.42,2.42,0,0,1,4,10.5a2.5,2.5,0,0,1,5-.35l.11.78.78.08a3.45,3.45,0,0,1,1.65.62,3.59,3.59,0,0,0-.39.39A3.51,3.51,0,0,0,8,15.5,3.41,3.41,0,0,0,8.34,17Zm18,0H11.5a1.5,1.5,0,0,1,0-3h.65l.29-.43a1.73,1.73,0,0,1,.31-.35,2.56,2.56,0,0,1,1.87-.7,1.13,1.13,0,0,1,.32,0l.63.1.35-.53A2.47,2.47,0,0,1,18,11h0a2.51,2.51,0,0,1,2.48,2.83l-.22,1,1,.22A1,1,0,0,1,22,16,1,1,0,0,1,21,17Z"/><path d="M14,4a1,1,0,0,1-1-1V2a1,1,0,0,1,2,0V3A1,1,0,0,1,14,4Z"/><path d="M18.94,6.05a1,1,0,0,1-.7-.29,1,1,0,0,1,0-1.42l.7-.7a1,1,0,0,1,1.42,0,1,1,0,0,1,0,1.41l-.71.71A1,1,0,0,1,18.94,6.05Z"/><path d="M9,6.05a1,1,0,0,1-.7-.29l-.71-.71A1,1,0,1,1,9,3.64l.71.7a1,1,0,0,1,0,1.42A1,1,0,0,1,9,6.05Z"/><path d="M9,24a.93.93,0,0,1-.45-.11,1,1,0,0,1-.44-1.34l1-2a1,1,0,0,1,1.34-.44,1,1,0,0,1,.45,1.34l-1,2A1,1,0,0,1,9,24Z"/><path d="M5,24a.93.93,0,0,1-.45-.11,1,1,0,0,1-.44-1.34l1-2a1,1,0,0,1,1.78.9l-1,2A1,1,0,0,1,5,24Z"/><path d="M13,24a.93.93,0,0,1-.45-.11,1,1,0,0,1-.44-1.34l1-2a1,1,0,0,1,1.34-.44,1,1,0,0,1,.45,1.34l-1,2A1,1,0,0,1,13,24Z"/><path d="M17,24a.93.93,0,0,1-.45-.11,1,1,0,0,1-.44-1.34l1-2a1,1,0,0,1,1.79.9l-1,2A1,1,0,0,1,17,24Z"/></svg>