<svg xmlns="http://www.w3.org/2000/svg" viewBox="0 0 24 24"><path d="M22,15a5.36,5.36,0,0,0,.08-1,6,6,0,0,0-8.61-5.39A5,5,0,0,0,4.07,11a4.88,4.88,0,0,0,1,3,3.51,3.51,0,0,0,0,7h14.5a3.5,3.5,0,0,0,3.5-3.5A3.46,3.46,0,0,0,22,15ZM9.07,8a3,3,0,0,1,2.74,1.79,5.75,5.75,0,0,0-1,1.24,5.65,5.65,0,0,0-4.4,1.46A3.12,3.12,0,0,1,6.07,11,3,3,0,0,1,9.07,8Zm10.5,11H5.07a1.5,1.5,0,0,1,0-3,1.48,1.48,0,0,1,.49.08l.92.3.32-.91h0A3.8,3.8,0,0,1,8,13.83a3.69,3.69,0,0,1,3.19-.68h0l.84.21.32-.81A4,4,0,0,1,20.07,14a4.35,4.35,0,0,1-.15,1.11l-.2.72.64.39a1.52,1.52,0,0,1,.71,1.28A1.5,1.5,0,0,1,19.57,19Z"/><path d="M9.07,5a1,1,0,0,1-1-1V3a1,1,0,1,1,2,0V4A1,1,0,0,1,9.07,5Z"/><path d="M14,7.09a1,1,0,0,1-.7-1.71l.7-.7a1,1,0,0,1,1.42,0,1,1,0,0,1,0,1.41l-.71.71A1,1,0,0,1,14,7.09Z"/><path d="M2.07,12h-1a1,1,0,0,1,0-2h1a1,1,0,1,1,0,2Z"/><path d="M4.12,7.09a1,1,0,0,1-.7-.29l-.71-.71a1,1,0,0,1,0-1.42,1,1,0,0,1,1.41,0l.71.7a1,1,0,0,1-.71,1.71Z"/></svg>