<svg xmlns="http://www.w3.org/2000/svg" viewBox="0 0 24 24"><path d="M21.91,13A5.36,5.36,0,0,0,22,12a6,6,0,0,0-8.61-5.39A5,5,0,0,0,4,9a4.89,4.89,0,0,0,1,3,3.5,3.5,0,1,0,0,7h14.5A3.5,3.5,0,0,0,23,15.5,3.46,3.46,0,0,0,21.91,13ZM9,6a3,3,0,0,1,2.74,1.79,5.75,5.75,0,0,0-1,1.24,5.64,5.64,0,0,0-4.39,1.46A3,3,0,0,1,9,6Zm10.5,11H5a1.5,1.5,0,0,1,0-3,1.79,1.79,0,0,1,.49.08l.92.3.32-.91h0A3.61,3.61,0,0,1,7.94,11.8a3.65,3.65,0,0,1,3.17-.69h0l.84.21.32-.81A4,4,0,0,1,20,12a4.35,4.35,0,0,1-.15,1.11l-.2.72.64.39A1.5,1.5,0,0,1,19.49,17Z"/><path d="M9,3A1,1,0,0,1,8,2V1a1,1,0,0,1,2,0V2A1,1,0,0,1,9,3Z"/><path d="M14,5.05a1,1,0,0,1-.71-.29,1,1,0,0,1,0-1.41L14,2.64a1,1,0,1,1,1.41,1.41l-.71.71A1,1,0,0,1,14,5.05Z"/><path d="M2,10H1A1,1,0,0,1,1,8H2a1,1,0,0,1,0,2Z"/><path d="M4.05,5.05a1,1,0,0,1-.71-.29l-.71-.71a1,1,0,0,1,0-1.41,1,1,0,0,1,1.42,0l.7.7a1,1,0,0,1-.7,1.71Z"/><path d="M7.49,24a.87.87,0,0,1-.44-.11,1,1,0,0,1-.45-1.34l1-2a1,1,0,0,1,1.34-.44,1,1,0,0,1,.45,1.34l-1,2A1,1,0,0,1,7.49,24Z"/><path d="M11.49,24a.87.87,0,0,1-.44-.11,1,1,0,0,1-.45-1.34l1-2a1,1,0,0,1,1.34-.44,1,1,0,0,1,.45,1.34l-1,2A1,1,0,0,1,11.49,24Z"/><path d="M15.49,24a.87.87,0,0,1-.44-.11,1,1,0,0,1-.45-1.34l1-2a1,1,0,0,1,1.34-.44,1,1,0,0,1,.45,1.34l-1,2A1,1,0,0,1,15.49,24Z"/></svg>