<svg xmlns="http://www.w3.org/2000/svg" viewBox="0 0 24 24"><path d="M14.07,4a1,1,0,0,1-1-1V2a1,1,0,1,1,2,0V3A1,1,0,0,1,14.07,4Z"/><path d="M19,6.09a1,1,0,0,1-.71-.29,1,1,0,0,1,0-1.42L19,3.67a1,1,0,0,1,1.42,0,1,1,0,0,1,0,1.41l-.71.71A1,1,0,0,1,19,6.09Z"/><path d="M9.12,6.09a1,1,0,0,1-.71-.29l-.7-.71a1,1,0,0,1,0-1.42,1,1,0,0,1,1.41,0l.71.71a1,1,0,0,1,0,1.42A1,1,0,0,1,9.12,6.09Z"/><path d="M24,15.39a2.92,2.92,0,0,0-1.42-2,4.49,4.49,0,0,0-.76-2.4h.25a1,1,0,0,0,0-2h-1a1,1,0,0,0-.87.53h0A4.28,4.28,0,0,0,19,9.13,5,5,0,0,0,9.81,7.42a4.49,4.49,0,0,0-7.73,3.12,4.55,4.55,0,0,0,.21,1.37,3.63,3.63,0,0,0-.66,1.5A3,3,0,0,0,3.07,19h18a3,3,0,0,0,3-3A2.36,2.36,0,0,0,24,15.39ZM14.07,7a3,3,0,0,1,2.87,2.15,4.46,4.46,0,0,0-2.22,1.35,3.88,3.88,0,0,0-1.23.14,5.31,5.31,0,0,0-2.32-1.4A3,3,0,0,1,14.07,7ZM8.42,17H3.07a1,1,0,0,1-1-1,1,1,0,0,1,.75-1l.75-.27V14a1.52,1.52,0,0,1,.54-1.15l.6-.51-.36-.71a2.47,2.47,0,0,1-.27-1.13,2.5,2.5,0,0,1,5-.35l.1.78.78.08a3.48,3.48,0,0,1,1.66.62,3.59,3.59,0,0,0-.39.39,3.51,3.51,0,0,0-3.12,3.48A3.41,3.41,0,0,0,8.42,17Zm12.66,0h-9.5a1.5,1.5,0,1,1,0-3h.64l.3-.43a2.1,2.1,0,0,1,.31-.35,2.66,2.66,0,0,1,1.87-.72,1.66,1.66,0,0,1,.32,0l.63.1.35-.53A2.49,2.49,0,0,1,18.07,11h0a2.5,2.5,0,0,1,2.5,2.5,1.37,1.37,0,0,1,0,.33l-.21,1,1,.23a1,1,0,0,1,.78,1A1,1,0,0,1,21.08,17Z"/></svg>