<svg xmlns="http://www.w3.org/2000/svg" viewBox="0 0 24 24"><path d="M8.5,17H5a3,3,0,0,1-.39-6A4.52,4.52,0,0,1,9,7.5a4.89,4.89,0,0,1,.54,0A6,6,0,0,1,21,10a5.31,5.31,0,0,1-.09,1,3.49,3.49,0,0,1-2.41,6,1,1,0,0,1,0-2A1.5,1.5,0,0,0,20,13.5a1.49,1.49,0,0,0-.72-1.27l-.66-.4.22-.74A4.11,4.11,0,0,0,19,10a4,4,0,0,0-7.86-1l-.28,1.09-1-.41A2.29,2.29,0,0,0,9,9.5,2.5,2.5,0,0,0,6.5,12v1.36L5.2,13,5,13a1,1,0,0,0-1,1,1,1,0,0,0,1,1H8.5a1,1,0,0,1,0,2Z"/><path d="M5,22a.87.87,0,0,1-.44-.11,1,1,0,0,1-.45-1.34l1-2a1,1,0,0,1,1.34-.44,1,1,0,0,1,.45,1.34l-1,2A1,1,0,0,1,5,22Z"/><path d="M9,22a.91.91,0,0,1-.45-.11,1,1,0,0,1-.45-1.34l1-2a1,1,0,0,1,1.34-.44,1,1,0,0,1,.45,1.34l-1,2A1,1,0,0,1,9,22Z"/><path d="M16.5,22a.88.88,0,0,1-.45-.11,1,1,0,0,1-.45-1.34l1-2a1,1,0,0,1,1.34-.44,1,1,0,0,1,.45,1.34l-1,2A1,1,0,0,1,16.5,22Z"/><path d="M16,16a1,1,0,0,1-.14.5l-2.31,3.84a.67.67,0,0,1-.9.22.65.65,0,0,1-.26-.8l.89-2.21.2-.5H11.9a.94.94,0,0,1-.94-.94,1,1,0,0,1,.14-.51l2.4-3.8a.55.55,0,0,1,.77-.17.56.56,0,0,1,.23.67l-.79,2.06-.26.69h1.62A1,1,0,0,1,16,16Z"/></svg>