<svg xmlns="http://www.w3.org/2000/svg" viewBox="0 0 36 36"><defs><style>.a{fill:none;}</style></defs><path d="M18,0A18,18,0,0,0,4.16,29.49l.26.3a17.95,17.95,0,0,0,27.2-.05l.16-.18h0A18,18,0,0,0,18,0ZM7,9V28H5.52a16,16,0,1,1,25,0H29V17a1,1,0,0,0-1-1H21V9a1,1,0,0,0-1-1H8A1,1,0,0,0,7,9ZM25,24V22h2v2Zm2,2v2H25V26Zm-2-6V18h2v2Zm-4,4V22h2v2Zm2,2v2H21V26Zm-2-6V18h2v2ZM19,10V28H9V10ZM18,34A15.91,15.91,0,0,1,7.44,30H28.56A15.91,15.91,0,0,1,18,34Z"/><line class="a" x1="12" y1="13" x2="11.99" y2="13"/><polygon points="13 14 10.99 14 10.99 12 12.99 12 13 14"/><line class="a" x1="16" y1="13" x2="15.99" y2="13"/><polygon points="17 14 14.99 14 14.99 12 16.99 12 17 14"/><line class="a" x1="12" y1="17" x2="11.99" y2="17"/><polygon points="13 18 10.99 18 10.99 16 12.99 16 13 18"/><line class="a" x1="16" y1="17" x2="15.99" y2="17"/><polygon points="17 18 14.99 18 14.99 16 16.99 16 17 18"/><line class="a" x1="16" y1="21" x2="15.99" y2="21"/><polygon points="17 22 14.99 22 14.99 20 16.99 20 17 22"/><line class="a" x1="16" y1="25" x2="15.99" y2="25"/><polygon points="17 26 14.99 26 14.99 24 16.99 24 17 26"/><line class="a" x1="12" y1="25" x2="11.99" y2="25"/><polygon points="13 26 10.99 26 10.99 24 12.99 24 13 26"/><line class="a" x1="12" y1="21" x2="11.99" y2="21"/><polygon points="13 22 10.99 22 10.99 20 12.99 20 13 22"/></svg>