<svg id="Symbol" xmlns="http://www.w3.org/2000/svg" viewBox="0 0 24 24"><path d="M8,18.75H6A.76.76,0,0,1,5.25,18V14A.76.76,0,0,1,6,13.25H8a.76.76,0,0,1,.75.75v4A.76.76,0,0,1,8,18.75Zm-1.25-1.5h.5v-2.5h-.5Z"/><path d="M18,18.75H16a.76.76,0,0,1-.75-.75V6A.76.76,0,0,1,16,5.25h2a.76.76,0,0,1,.75.75V18A.76.76,0,0,1,18,18.75Zm-1.25-1.5h.5V6.75h-.5Z"/><path d="M13,18.75H11a.76.76,0,0,1-.75-.75V10A.76.76,0,0,1,11,9.25h2a.76.76,0,0,1,.75.75v8A.76.76,0,0,1,13,18.75Zm-1.25-1.5h.5v-6.5h-.5Z"/><path d="M21,21.75H3A.76.76,0,0,1,2.25,21V3a.75.75,0,0,1,1.5,0V20.25H21a.75.75,0,0,1,0,1.5Z"/></svg>