<svg id="Symbol" xmlns="http://www.w3.org/2000/svg" viewBox="0 0 24 24"><path d="M21.73,9.85a.31.31,0,0,0-.06-.16.12.12,0,0,0,0-.08.45.45,0,0,0-.1-.14L20,7.94V3a.76.76,0,0,0-.75-.75H4.75A.76.76,0,0,0,4,3V7.94L2.47,9.47a.84.84,0,0,0-.22.52V21a.77.77,0,0,0,0,.15.67.67,0,0,0,.14.31l.08.09.09.07.13.07a.72.72,0,0,0,.29.06H21a.72.72,0,0,0,.42-.13l.09-.07.08-.09a.67.67,0,0,0,.14-.31.77.77,0,0,0,0-.15V10A.5.5,0,0,0,21.73,9.85ZM5.5,3.75h13v7l-5.18,3.35-.86-.67a.75.75,0,0,0-.92,0l-.86.67L5.5,10.73ZM3.75,11.38l5.67,3.68L3.75,19.47Zm1.43,8.87,6-4.67,0,0L12,15l.77.6,0,0,6,4.67Zm15.07-.78-5.67-4.41,5.67-3.68Z"/><path d="M16,6.25H8a.75.75,0,0,1,0-1.5h8a.75.75,0,0,1,0,1.5Z"/><path d="M16,8.75H8a.75.75,0,0,1,0-1.5h8a.75.75,0,0,1,0,1.5Z"/><path d="M16,11.25H8a.75.75,0,0,1,0-1.5h8a.75.75,0,0,1,0,1.5Z"/></svg>