<svg xmlns="http://www.w3.org/2000/svg" viewBox="0 0 24 24"><circle cx="14.51" cy="3.37" r="1.63"/><path d="M19,21.75A4.75,4.75,0,1,1,23.75,17,4.75,4.75,0,0,1,19,21.75Zm0-8A3.25,3.25,0,1,0,22.25,17,3.26,3.26,0,0,0,19,13.75Z"/><path d="M5,21.75A4.75,4.75,0,1,1,9.75,17,4.75,4.75,0,0,1,5,21.75Zm0-8A3.25,3.25,0,1,0,8.25,17,3.26,3.26,0,0,0,5,13.75Z"/><path d="M19,8.73a.8.8,0,0,1-.81.8H15.57a1.54,1.54,0,0,1-1-.36L12.71,7.58l-2.29,2.77,2,1.44A1.46,1.46,0,0,1,13,13v5.36a1,1,0,1,1-2,0V13.62L8,11.87a1.58,1.58,0,0,1-.39-2.4l3.79-4.36A.91.91,0,0,1,12.75,5l3.06,2.88h2.38A.81.81,0,0,1,19,8.73Z"/></svg>