<svg id="Symbol" xmlns="http://www.w3.org/2000/svg" viewBox="0 0 24 24"><path d="M9.5,19.75H8a.76.76,0,0,1-.73-.57l-.37-1.5a5.85,5.85,0,0,1-1-.59l-1.48.43a.75.75,0,0,1-.86-.35L2,14.58a.76.76,0,0,1,.13-.92l1.11-1.08a5.62,5.62,0,0,1,0-1.16L2.17,10.34A.76.76,0,0,1,2,9.42l1.5-2.59a.75.75,0,0,1,.86-.35l1.48.43a5.85,5.85,0,0,1,1-.59l.37-1.5A.76.76,0,0,1,8,4.25h3a.76.76,0,0,1,.73.57l.47,1.87a.76.76,0,0,1-.55.91.75.75,0,0,1-.91-.55l-.32-1.3H8.58l-.32,1.3a.78.78,0,0,1-.47.53,4.07,4.07,0,0,0-1.27.73.75.75,0,0,1-.69.14L4.55,8.08,3.63,9.67l1,.93a.77.77,0,0,1,.22.67,4.47,4.47,0,0,0,0,1.46.77.77,0,0,1-.22.67l-1,.93.92,1.59,1.28-.37a.75.75,0,0,1,.69.14,4.07,4.07,0,0,0,1.27.73.78.78,0,0,1,.47.53l.32,1.3H9.5a.75.75,0,0,1,0,1.5Z"/><path d="M9.5,15.37a3.32,3.32,0,0,1-2.38-1,3.37,3.37,0,0,1,4.76-4.76.74.74,0,0,1,0,1.06.75.75,0,0,1-1.06,0A1.87,1.87,0,1,0,9.5,13.87a.75.75,0,0,1,0,1.5Z"/><path d="M18.92,10.85A3.68,3.68,0,0,0,20.25,8a3.75,3.75,0,0,0-7.5,0,3.68,3.68,0,0,0,1.33,2.85,5.24,5.24,0,0,0-2.83,4.65V20a.76.76,0,0,0,.75.75h9a.76.76,0,0,0,.75-.75V15.5A5.24,5.24,0,0,0,18.92,10.85ZM14.25,8a2.25,2.25,0,1,1,2.25,2.25A2.25,2.25,0,0,1,14.25,8Zm6,11.25h-7.5V15.5a3.75,3.75,0,0,1,7.5,0Z"/></svg>