<svg id="Symbol" xmlns="http://www.w3.org/2000/svg" viewBox="0 0 24 24"><path d="M20.75,8a.78.78,0,0,1-.27.58l-3,2.5a.78.78,0,0,1-.48.17.71.71,0,0,1-.32-.07.75.75,0,0,1-.43-.68V9.25H5a.76.76,0,0,1-.75-.75v-1A.76.76,0,0,1,5,6.75H16.25V5.5a.75.75,0,0,1,.43-.68.77.77,0,0,1,.8.1l3,2.5A.78.78,0,0,1,20.75,8Z"/><path d="M19.75,15.5v1a.76.76,0,0,1-.75.75H7.75V18.5a.75.75,0,0,1-.43.68.71.71,0,0,1-.32.07.78.78,0,0,1-.48-.17l-3-2.5a.76.76,0,0,1,0-1.16l3-2.5a.77.77,0,0,1,.8-.1.75.75,0,0,1,.43.68v1.25H19A.76.76,0,0,1,19.75,15.5Z"/></svg>