<svg id="Symbol" xmlns="http://www.w3.org/2000/svg" viewBox="0 0 24 24"><path d="M10,18.75H3A.76.76,0,0,1,2.25,18V4A.76.76,0,0,1,3,3.25H19a.76.76,0,0,1,.75.75v9.5a.75.75,0,0,1-1.5,0V4.75H3.75v12.5H10a.75.75,0,0,1,0,1.5Z"/><path d="M16.53,9.47a.75.75,0,0,1,0,1.06.75.75,0,0,1-1.06,0l-1-1-1,1a.75.75,0,0,1-1.06,0,.75.75,0,0,1,0-1.06l1-1-1-1a.75.75,0,0,1,0-1.06.74.74,0,0,1,1.06,0l1,1,1-1a.74.74,0,0,1,1.06,0,.75.75,0,0,1,0,1.06l-1,1Z"/><path d="M9.53,9.47a.75.75,0,0,1,0,1.06.75.75,0,0,1-1.06,0l-1-1-1,1a.75.75,0,0,1-1.06,0,.75.75,0,0,1,0-1.06l1-1-1-1a.75.75,0,0,1,0-1.06.74.74,0,0,1,1.06,0l1,1,1-1a.74.74,0,0,1,1.06,0,.75.75,0,0,1,0,1.06l-1,1Z"/><path d="M9,16.25a2.14,2.14,0,0,1-2-1.46l-.68-2a.75.75,0,0,1,.1-.68A.77.77,0,0,1,7,11.75h6.5a.75.75,0,0,1,0,1.5h-2L11,14.79A2.14,2.14,0,0,1,9,16.25Zm-1-3,.36,1.06a.66.66,0,0,0,1.21,0L10,13.25Z"/><path d="M21,20.12l-4.33-7.5a.78.78,0,0,0-1.3,0L11,20.12a.77.77,0,0,0,0,.75.75.75,0,0,0,.65.38h8.66a.75.75,0,0,0,.65-.38A.77.77,0,0,0,21,20.12ZM15.38,15a.5.5,0,0,1,.5-.5h.24a.5.5,0,0,1,.5.5v2.5a.5.5,0,0,1-.5.5h-.24a.5.5,0,0,1-.5-.5ZM16,20a.75.75,0,1,1,.75-.75A.76.76,0,0,1,16,20Z"/></svg>