<svg id="Symbol" xmlns="http://www.w3.org/2000/svg" viewBox="0 0 24 24"><path d="M20,11.28H11.43a4.75,4.75,0,0,0-2-2.39A3.75,3.75,0,1,0,3.25,6,3.71,3.71,0,0,0,4.62,8.89,4.74,4.74,0,0,0,2.25,13v3a.76.76,0,0,0,.75.75H5.25V21a.75.75,0,0,0,.75.75H20a.75.75,0,0,0,.75-.75V12A.75.75,0,0,0,20,11.28ZM4.75,6A2.25,2.25,0,1,1,7,8.25,2.25,2.25,0,0,1,4.75,6Zm.5,6v3.22H3.75V13a3.25,3.25,0,0,1,6-1.72H6A.75.75,0,0,0,5.25,12Zm14,8.19H6.75V12.78h12.5Z"/><path d="M9.89,18.86a.73.73,0,0,1-.53-.22L7.8,17.09A.75.75,0,0,1,7.8,16l1.56-1.56a.75.75,0,1,1,1.06,1.06l-1,1,1,1a.75.75,0,0,1,0,1.06A.74.74,0,0,1,9.89,18.86Z"/><path d="M16.11,18.86a.74.74,0,0,1-.53-.22.75.75,0,0,1,0-1.06l1-1-1-1a.75.75,0,1,1,1.06-1.06L18.2,16a.75.75,0,0,1,0,1.06l-1.56,1.55A.73.73,0,0,1,16.11,18.86Z"/><path d="M12.22,19.64a.59.59,0,0,1-.23,0,.75.75,0,0,1-.48-1L13.07,14a.74.74,0,0,1,.94-.48.75.75,0,0,1,.48,1l-1.56,4.67A.74.74,0,0,1,12.22,19.64Z"/></svg>