<svg id="Symbol" xmlns="http://www.w3.org/2000/svg" viewBox="0 0 24 24"><path d="M21,3.25H3A.76.76,0,0,0,2.25,4V20a.76.76,0,0,0,.75.75H21a.76.76,0,0,0,.75-.75V4A.76.76,0,0,0,21,3.25Zm-.75,16H3.75V8.75h16.5Zm0-12H3.75V4.75h16.5Z"/><path d="M8,16.75a.74.74,0,0,1-.53-.22l-2-2a.75.75,0,0,1,0-1.06l2-2a.75.75,0,1,1,1.06,1.06L7.06,14l1.47,1.47a.75.75,0,0,1,0,1.06A.74.74,0,0,1,8,16.75Z"/><path d="M16,16.75a.74.74,0,0,1-.53-.22.75.75,0,0,1,0-1.06L16.94,14l-1.47-1.47a.75.75,0,1,1,1.06-1.06l2,2a.75.75,0,0,1,0,1.06l-2,2A.74.74,0,0,1,16,16.75Z"/><path d="M11,17.75a.67.67,0,0,1-.24,0,.75.75,0,0,1-.47-.95l2-6a.75.75,0,0,1,1.42.48l-2,6A.75.75,0,0,1,11,17.75Z"/></svg>