<svg xmlns="http://www.w3.org/2000/svg" viewBox="0 0 24 24"><polygon points="12 11.01 12 11.03 11.98 11.02 12 11.01"/><path d="M24,17.62,20,23s-2-2-3-2c-2,0-3,2-4.95,2H12C10,23,9,21,7,21c-1,0-3,2-3,2L0,17.61l11.19-5a2,2,0,0,1,1.62,0Z"/><polygon points="11.98 11.02 11.95 11.03 11.95 11.01 11.98 11.02"/><path d="M21.11,6.72a2,2,0,0,0-2-1.72H17.78l-.62-2.48A2,2,0,0,0,15.21,1H8.78A2,2,0,0,0,6.84,2.51L6.22,5H4.87a2,2,0,0,0-2,1.72L1.75,14.65,12,10.1l10.24,4.55ZM8.78,3h6.44l.5,2H8.28Zm2.41,5.27L4.24,11.36,4.86,7H19.13l.62,4.36L12.81,8.27A2,2,0,0,0,11.19,8.27Z"/></svg>