<svg id="Symbol" xmlns="http://www.w3.org/2000/svg" viewBox="0 0 24 24"><path d="M20.22,2.25H3.78A.76.76,0,0,0,3,3v9.43a9.13,9.13,0,0,0,2.91,6.69,13.09,13.09,0,0,0,5.15,3l.7.2a.75.75,0,0,0,.42,0l.7-.2c3-.88,8.06-3.9,8.06-9.69V3A.76.76,0,0,0,20.22,2.25ZM17,3.75v8.68c0,3.82-4,5.44-5,5.78-1-.34-5-2-5-5.78V3.75Zm2.5,8.68c0,4.9-4.39,7.49-7,8.25l-.49.14-.49-.14c-2.59-.76-7-3.35-7-8.25V3.75h1v8.68c0,5.4,6,7.22,6.26,7.29a.75.75,0,0,0,.42,0c.26-.07,6.26-1.89,6.26-7.29V3.75h1Z"/><path d="M16,9.58,14,11l.76,2.33a.49.49,0,0,1-.18.55.5.5,0,0,1-.59,0l-2-1.43L10,13.9a.46.46,0,0,1-.29.1.47.47,0,0,1-.3-.1.49.49,0,0,1-.18-.55L10,11,8,9.58a.5.5,0,0,1,.29-.91h2.45l.75-2.32a.52.52,0,0,1,1,0l.75,2.32h2.45a.5.5,0,0,1,.29.91Z"/></svg>