<svg id="Symbol" xmlns="http://www.w3.org/2000/svg" viewBox="0 0 24 24"><path d="M15.08,11.7l.07,0v0Z"/><path d="M19.35,2H4.65a.75.75,0,0,0-.75.75V12.8c0,6.78,7.57,9.08,7.89,9.17a.75.75,0,0,0,.42,0c.32-.09,7.89-2.39,7.89-9.17v-10A.75.75,0,0,0,19.35,2Zm-4.18,9.62a0,0,0,0,0,0,0v0a2,2,0,0,1-.53.39,5.77,5.77,0,0,1-2.62.41,11.12,11.12,0,0,1-1.5-.08l-.32,0a3.06,3.06,0,0,1-.56-.17L9.38,12a1.17,1.17,0,0,1-.3-.19,1.3,1.3,0,0,1-.22-.19v0c-.11-.16-.06-.48.13-.88a4.29,4.29,0,0,1,3-2.31,4.31,4.31,0,0,1,3,2.31A1.14,1.14,0,0,1,15.17,11.62ZM18.6,12.8a6.42,6.42,0,0,1-.86,3.26A3.73,3.73,0,0,0,15.91,13a2.82,2.82,0,0,0,.36-.33l.05-.05h0a.13.13,0,0,0,0-.06,1.27,1.27,0,0,0,.13-.19c.59-1.05,0-2.71-.38-3.68-.67-1.56-2.29-4.2-4.11-4.2S8.56,7.08,7.89,8.64c-.46,1.07-1.09,3-.16,4A2.83,2.83,0,0,0,8.1,13a3.73,3.73,0,0,0-1.84,3.1A6.54,6.54,0,0,1,5.4,12.8V3.5H18.6Z"/></svg>