<svg xmlns="http://www.w3.org/2000/svg" viewBox="0 0 24 24"><path d="M18.5,17H5a3,3,0,0,1-.39-6A4.52,4.52,0,0,1,9,7.5a4.89,4.89,0,0,1,.54,0A6,6,0,0,1,21,10a5.31,5.31,0,0,1-.09,1,3.49,3.49,0,0,1-2.41,6ZM5,13a1,1,0,0,0-1,1,1,1,0,0,0,1,1H18.5A1.5,1.5,0,0,0,20,13.5a1.48,1.48,0,0,0-.71-1.27l-.67-.4.22-.75A4,4,0,1,0,11.14,9l-.28,1.09-1-.41A2.29,2.29,0,0,0,9,9.5,2.5,2.5,0,0,0,6.5,12v1.36L5.2,13Z"/><path d="M5,22a.88.88,0,0,1-.45-.11,1,1,0,0,1-.45-1.34l1-2a1,1,0,1,1,1.79.9l-1,2A1,1,0,0,1,5,22Z"/><path d="M9,22a.87.87,0,0,1-.44-.11,1,1,0,0,1-.45-1.34l1-2a1,1,0,1,1,1.79.9l-1,2A1,1,0,0,1,9,22Z"/><path d="M13,22a.88.88,0,0,1-.45-.11,1,1,0,0,1-.45-1.34l1-2a1,1,0,1,1,1.79.9l-1,2A1,1,0,0,1,13,22Z"/><path d="M17,22a.88.88,0,0,1-.45-.11,1,1,0,0,1-.45-1.34l1-2a1,1,0,1,1,1.79.9l-1,2A1,1,0,0,1,17,22Z"/></svg>