<svg id="Symbol" xmlns="http://www.w3.org/2000/svg" viewBox="0 0 24 24"><path d="M21,2.75H3a.76.76,0,0,0-.75.75v4A.76.76,0,0,0,3,8.25H21a.76.76,0,0,0,.75-.75v-4A.76.76,0,0,0,21,2.75ZM3.75,4.25h3.5v2.5H3.75Zm16.5,2.5H8.75V4.25h11.5Z"/><path d="M21,15.75H3a.76.76,0,0,0-.75.75v4a.76.76,0,0,0,.75.75H21a.76.76,0,0,0,.75-.75v-4A.76.76,0,0,0,21,15.75ZM3.75,17.25h3.5v2.5H3.75Zm16.5,2.5H8.75v-2.5h11.5Z"/><path d="M21,9.25H3a.76.76,0,0,0-.75.75v4a.76.76,0,0,0,.75.75H21a.76.76,0,0,0,.75-.75V10A.76.76,0,0,0,21,9.25ZM3.75,10.75h3.5v2.5H3.75Zm16.5,2.5H8.75v-2.5h11.5Z"/><path d="M5.5,6.25a.72.72,0,0,1-.29-.06A.63.63,0,0,1,5,6a.74.74,0,0,1-.16-.82A.78.78,0,0,1,5,5a.75.75,0,0,1,.82-.16A.63.63,0,0,1,6,5a.78.78,0,0,1,.16.24.75.75,0,0,1,.06.29.72.72,0,0,1-.06.29A.78.78,0,0,1,6,6a.63.63,0,0,1-.24.16A.75.75,0,0,1,5.5,6.25Z"/><path d="M5.5,12.75A.75.75,0,0,1,5,12.53a.63.63,0,0,1-.16-.24A.72.72,0,0,1,4.75,12,.75.75,0,0,1,5,11.47a.78.78,0,0,1,.24-.16.75.75,0,0,1,.82.16.78.78,0,0,1,.16.24.72.72,0,0,1,.06.29.75.75,0,0,1-.75.75Z"/><path d="M5.5,19.25a.72.72,0,0,1-.29-.06A.63.63,0,0,1,5,19a.74.74,0,0,1-.16-.82A.63.63,0,0,1,5,18a.75.75,0,0,1,.82-.16A.63.63,0,0,1,6,18a.75.75,0,0,1-.53,1.28Z"/></svg>