<svg id="Symbol" xmlns="http://www.w3.org/2000/svg" viewBox="0 0 24 24"><path d="M12,13.7A1.75,1.75,0,1,1,13.75,12,1.76,1.76,0,0,1,12,13.7Zm0-2a.25.25,0,0,0-.25.25c0,.27.5.27.5,0A.25.25,0,0,0,12,11.7Z"/><path d="M12.89,16.7H11.11a.75.75,0,0,1-.74-.63l-.11-.67c-.13-.07-.26-.14-.38-.22l-.63.24a.76.76,0,0,1-.92-.33l-.89-1.54a.74.74,0,0,1,.18-1l.52-.44V12a1.7,1.7,0,0,1,0-.22l-.53-.43a.76.76,0,0,1-.18-1L8.33,8.8a.77.77,0,0,1,.92-.33l.64.25.37-.22.11-.67a.75.75,0,0,1,.74-.63h1.78a.75.75,0,0,1,.74.63l.11.67.37.22.64-.25a.77.77,0,0,1,.92.33l.89,1.54a.76.76,0,0,1-.18,1l-.53.43a1.7,1.7,0,0,1,0,.22v.21l.52.44a.74.74,0,0,1,.18,1l-.89,1.54a.76.76,0,0,1-.92.33l-.63-.24c-.12.08-.25.15-.38.22l-.11.68A.75.75,0,0,1,12.89,16.7Zm-1.14-1.5h.5l.08-.46a.78.78,0,0,1,.49-.58,2.18,2.18,0,0,0,.69-.4.73.73,0,0,1,.75-.13l.43.16.25-.44-.36-.29a.75.75,0,0,1-.25-.73,2.09,2.09,0,0,0,0-.38,1.75,1.75,0,0,0,0-.4.78.78,0,0,1,.26-.71l.36-.3-.25-.44-.43.17a.78.78,0,0,1-.76-.14,2.19,2.19,0,0,0-.68-.39.76.76,0,0,1-.49-.58l-.08-.46h-.5l-.08.45a.74.74,0,0,1-.49.59,2.19,2.19,0,0,0-.68.39.78.78,0,0,1-.76.14l-.43-.17-.25.44.36.3a.78.78,0,0,1,.26.71,1.75,1.75,0,0,0,0,.4,2.09,2.09,0,0,0,0,.38.75.75,0,0,1-.25.73l-.36.29.25.44.43-.16a.73.73,0,0,1,.76.14,2.19,2.19,0,0,0,.68.39.74.74,0,0,1,.49.59Z"/><path d="M18.86,4.88V7a.5.5,0,0,1-.5.5H16.24a.5.5,0,0,1-.46-.31.49.49,0,0,1,.11-.54l.48-.48a7.27,7.27,0,0,0-9.5.65.74.74,0,0,1-1.06,0,.75.75,0,0,1,0-1.06A8.77,8.77,0,0,1,17.44,5.1L18,4.53a.49.49,0,0,1,.55-.11A.49.49,0,0,1,18.86,4.88Z"/><path d="M10.65,19.87a.74.74,0,0,1-.72.56.63.63,0,0,1-.19,0,8.75,8.75,0,0,1-6.39-9.73l-.79-.21A.49.49,0,0,1,2.2,10a.5.5,0,0,1,.24-.5L4.28,8.48A.49.49,0,0,1,5,8.66L6,10.5a.5.5,0,0,1,0,.56.51.51,0,0,1-.4.19l-.13,0-.65-.17A7.24,7.24,0,0,0,10.12,19,.75.75,0,0,1,10.65,19.87Z"/><path d="M15.21,20.08l.21.79a.48.48,0,0,1-.17.52.51.51,0,0,1-.31.11.59.59,0,0,1-.25-.07l-1.84-1.06a.5.5,0,0,1-.18-.68l1.06-1.84a.48.48,0,0,1,.5-.25.5.5,0,0,1,.42.37l.17.65A7.24,7.24,0,0,0,19,10.07a.75.75,0,0,1,1.45-.38A8.75,8.75,0,0,1,15.21,20.08Z"/></svg>