<svg id="Symbol" xmlns="http://www.w3.org/2000/svg" viewBox="0 0 24 24"><path d="M17.5,9.75H10a.75.75,0,0,1,0-1.5h7.5a.75.75,0,0,1,0,1.5Z"/><path d="M17.5,15.75H10a.75.75,0,0,1,0-1.5h7.5a.75.75,0,0,1,0,1.5Z"/><path d="M17.5,6.75H10a.75.75,0,0,1,0-1.5h7.5a.75.75,0,0,1,0,1.5Z"/><path d="M17.5,18.75H10a.75.75,0,0,1,0-1.5h7.5a.75.75,0,0,1,0,1.5Z"/><path d="M17.5,12.75H10a.75.75,0,0,1,0-1.5h7.5a.75.75,0,0,1,0,1.5Z"/><path d="M20,21.75H4A.76.76,0,0,1,3.25,21V3A.76.76,0,0,1,4,2.25H20a.76.76,0,0,1,.75.75V21A.76.76,0,0,1,20,21.75ZM4.75,20.25h14.5V3.75H4.75Z"/><circle cx="7" cy="18" r="1"/><circle cx="7" cy="15" r="1"/><circle cx="7" cy="12" r="1"/><circle cx="7" cy="9" r="1"/><circle cx="7" cy="6" r="1"/></svg>