<svg xmlns="http://www.w3.org/2000/svg" viewBox="0 0 36 36"><path d="M18,0A18,18,0,0,0,0,18,16.94,16.94,0,0,0,.25,21s0,0,0,0a.61.61,0,0,0,0,.13,17.75,17.75,0,0,0,3.9,8.4l.09.12.1.11,0,0a18,18,0,0,0,27.2,0h0l.1-.11.09-.12a17.76,17.76,0,0,0,3-5.19l0,0A18,18,0,0,0,18,0ZM5.52,28a15.78,15.78,0,0,1-3.21-6.9L11,12.42,18.58,20l-8,8ZM18,34A15.91,15.91,0,0,1,7.44,30H28.56A15.91,15.91,0,0,1,18,34Zm12.48-6H13.42l7.29-7.29L25,16.42l7.76,7.75A15.72,15.72,0,0,1,30.48,28Zm3-5.93-7.77-7.78a1,1,0,0,0-1.42,0L20,18.58l-8.29-8.29a1,1,0,0,0-1.42,0L2,18.57c0-.19,0-.38,0-.57a16,16,0,1,1,31.48,4.07Z"/></svg>