<svg xmlns="http://www.w3.org/2000/svg" viewBox="0 0 36 36"><path d="M18,0A18,18,0,0,0,4.19,29.52a1.64,1.64,0,0,0,.21.25,18,18,0,0,0,27.2,0,1.64,1.64,0,0,0,.21-.25A18,18,0,0,0,18,0ZM7,9V28H5.52a16,16,0,1,1,25,0H29V11a1,1,0,0,0-1-1H22a1,1,0,0,0-1,1v1a1,1,0,0,0,1,1h3a1,1,0,0,0,1-1h1V28H24V22h1a1,1,0,0,0,.77-.36,1,1,0,0,0,.21-.83l-1-5A1,1,0,0,0,24,15H19V9a1,1,0,0,0-1-1H8A1,1,0,0,0,7,9ZM19,24H18a1,1,0,0,0-.71.29A1,1,0,0,0,17,25v3H14V22h8v6H20V25A1,1,0,0,0,19,24Zm-8.77-2.36A1,1,0,0,0,11,22h1v6H9V10h8v5H12a1,1,0,0,0-1,.81l-1,5A1,1,0,0,0,10.23,21.64ZM12.82,17H23.18l.6,3H12.22ZM18,34A15.91,15.91,0,0,1,7.44,30H28.56A15.91,15.91,0,0,1,18,34Z"/></svg>