<svg id="Symbol" xmlns="http://www.w3.org/2000/svg" viewBox="0 0 24 24"><path d="M21,20.12l-4.33-7.5a.78.78,0,0,0-1.3,0L11,20.12a.77.77,0,0,0,0,.75.75.75,0,0,0,.65.38h8.66a.75.75,0,0,0,.65-.38A.77.77,0,0,0,21,20.12ZM15.38,15a.5.5,0,0,1,.5-.5h.24a.5.5,0,0,1,.5.5v2.5a.5.5,0,0,1-.5.5h-.24a.5.5,0,0,1-.5-.5ZM16,20a.75.75,0,1,1,.75-.75A.76.76,0,0,1,16,20Z"/><path d="M10,18.75H5.71a.78.78,0,0,1-.5-.19A8.75,8.75,0,1,1,19.75,12a7.88,7.88,0,0,1-.07,1.09.74.74,0,0,1-.83.65.75.75,0,0,1-.66-.83,6.84,6.84,0,0,0,.06-.91A7.25,7.25,0,1,0,6,17.25h4a.75.75,0,0,1,0,1.5Z"/><path d="M15.89,8.11a.75.75,0,0,0-1.06,0L12,11a2.23,2.23,0,0,0-1-.22A2.25,2.25,0,1,0,13.25,13,2.23,2.23,0,0,0,13,12l2.86-2.86A.75.75,0,0,0,15.89,8.11ZM11,13.75a.75.75,0,1,1,.75-.75A.76.76,0,0,1,11,13.75Z"/><path d="M5.5,12.75A.76.76,0,0,1,4.75,12a6.26,6.26,0,0,1,9.19-5.52.75.75,0,0,1-.7,1.33,4.75,4.75,0,0,0-7,4.19A.76.76,0,0,1,5.5,12.75Z"/></svg>