<svg xmlns="http://www.w3.org/2000/svg" viewBox="0 0 36 36"><rect x="17" y="22" width="3" height="3" rx="1"/><path d="M18,0A18,18,0,1,0,36,18,18,18,0,0,0,18,0ZM2.49,21.92,14,10.42,17.58,14H14a1,1,0,0,0-.89.55l-2,4A1,1,0,0,0,12,20h1v8H5.52A15.82,15.82,0,0,1,2.49,21.92ZM24,23H23a1,1,0,0,0-1,1v4H15V20H27v8H25V24A1,1,0,0,0,24,23ZM13.62,18l1-2H27.38l1,2ZM18,34A15.91,15.91,0,0,1,7.44,30H28.56A15.91,15.91,0,0,1,18,34Zm12.48-6H29V25.41l2,2A7.47,7.47,0,0,1,30.48,28ZM29,22.6V20h1a1,1,0,0,0,.9-1.45l-2-4A1,1,0,0,0,28,14H20.41l-5.7-5.71a1,1,0,0,0-1.42,0L2.07,19.52C2,19,2,18.51,2,18a16,16,0,1,1,30.06,7.65Z"/></svg>