<svg xmlns="http://www.w3.org/2000/svg" viewBox="0 0 24 24"><path d="M12,17a5,5,0,1,1,5-5A5,5,0,0,1,12,17Zm0-8a3,3,0,1,0,3,3A3,3,0,0,0,12,9Z"/><path d="M12,6a1,1,0,0,1-1-1V4a1,1,0,0,1,2,0V5A1,1,0,0,1,12,6Z"/><path d="M17,8.05a1,1,0,0,1-.71-.29,1,1,0,0,1,0-1.42l.71-.7a1,1,0,1,1,1.41,1.41l-.7.71A1,1,0,0,1,17,8.05Z"/><path d="M12,21a1,1,0,0,1-1-1V19a1,1,0,0,1,2,0v1A1,1,0,0,1,12,21Z"/><path d="M6.34,18.66A1,1,0,0,1,5.63,17l.71-.71a1,1,0,0,1,1.41,1.42l-.7.7A1,1,0,0,1,6.34,18.66Z"/><path d="M20,13H19a1,1,0,0,1,0-2h1a1,1,0,0,1,0,2Z"/><path d="M17.65,18.66a1,1,0,0,1-.7-.29l-.71-.71a1,1,0,0,1,0-1.42,1,1,0,0,1,1.41,0l.71.71a1,1,0,0,1-.71,1.71Z"/><path d="M5,13H4a1,1,0,0,1,0-2H5a1,1,0,0,1,0,2Z"/><path d="M7.05,8.05a1,1,0,0,1-.71-.29l-.71-.71a1,1,0,0,1,0-1.41,1,1,0,0,1,1.42,0l.71.7a1,1,0,0,1,0,1.42A1,1,0,0,1,7.05,8.05Z"/></svg>