<svg id="Symbol" xmlns="http://www.w3.org/2000/svg" viewBox="0 0 23.97 23.97"><path d="M12,2.25h0A9.73,9.73,0,1,0,21.75,12,9.76,9.76,0,0,0,12,2.25Zm-2.7,2A10,10,0,0,0,7.39,7.5a15.8,15.8,0,0,1-1.87-.59A8.28,8.28,0,0,1,9.31,4.2Zm-4.62,4A16.29,16.29,0,0,0,7,9a13.09,13.09,0,0,0-.3,2.3H3.78A8.12,8.12,0,0,1,4.69,8.19Zm0,7.62a8.12,8.12,0,0,1-.91-3.06h2.9a13.09,13.09,0,0,0,.3,2.3A16.29,16.29,0,0,0,4.69,15.81Zm.83,1.29a13.44,13.44,0,0,1,1.87-.6,10,10,0,0,0,1.92,3.3A8.26,8.26,0,0,1,5.52,17.1Zm5.73,2.5a8.07,8.07,0,0,1-2.37-3.4A18.07,18.07,0,0,1,11.25,16Zm0-5.12a20.47,20.47,0,0,0-2.81.27,12.79,12.79,0,0,1-.26-2h3.07Zm0-3.23H8.18a12.79,12.79,0,0,1,.26-2,20.47,20.47,0,0,0,2.81.27Zm0-3.23A18.07,18.07,0,0,1,8.88,7.8a8.2,8.2,0,0,1,2.37-3.41Zm7.23-1.11a15.54,15.54,0,0,1-1.86.59A10,10,0,0,0,14.7,4.21,8.18,8.18,0,0,1,18.48,6.91ZM12.75,4.4a8.23,8.23,0,0,1,2.38,3.4A18.06,18.06,0,0,1,12.75,8Zm0,5.12a20.47,20.47,0,0,0,2.81-.27,11.79,11.79,0,0,1,.27,2H12.75Zm0,3.23h3.08a12.79,12.79,0,0,1-.26,2,20.47,20.47,0,0,0-2.82-.27Zm0,6.87V16a18.06,18.06,0,0,1,2.38.22A8.19,8.19,0,0,1,12.75,19.62Zm1.95.17a10,10,0,0,0,1.92-3.29,15.54,15.54,0,0,1,1.86.59A8.18,8.18,0,0,1,14.7,19.79Zm4.62-4A16.29,16.29,0,0,0,17,15.05a14.06,14.06,0,0,0,.31-2.3h2.88A8.3,8.3,0,0,1,19.32,15.81Zm-2-4.56A14.06,14.06,0,0,0,17,9a16.29,16.29,0,0,0,2.29-.76,8.3,8.3,0,0,1,.9,3.06Z"/></svg>