<svg xmlns="http://www.w3.org/2000/svg" viewBox="0 0 24 24"><defs><style>.cls-1{fill:#666;}</style></defs><g id="Layer_3" data-name="Layer 3"><path class="cls-1" d="M12,17a5,5,0,1,1,5-5A5,5,0,0,1,12,17Zm0-8a3,3,0,1,0,3,3A3,3,0,0,0,12,9Z"/><path class="cls-1" d="M12,5.5a1,1,0,0,1-1-1V3a1,1,0,0,1,2,0V4.5A1,1,0,0,1,12,5.5Z"/><path class="cls-1" d="M12,22a1,1,0,0,1-1-1V19.5a1,1,0,0,1,2,0V21A1,1,0,0,1,12,22Z"/><path class="cls-1" d="M21,13H19.5a1,1,0,0,1,0-2H21a1,1,0,0,1,0,2Z"/><path class="cls-1" d="M4.5,13H3a1,1,0,0,1,0-2H4.5a1,1,0,0,1,0,2Z"/><path class="cls-1" d="M17.3,7.7a1,1,0,0,1-.7-.3A1,1,0,0,1,16.6,6l1.06-1.06a1,1,0,1,1,1.41,1.41L18,7.4A1,1,0,0,1,17.3,7.7Z"/><path class="cls-1" d="M5.64,19.36a1,1,0,0,1-.71-.29,1,1,0,0,1,0-1.41L6,16.6A1,1,0,1,1,7.4,18L6.34,19.07A1,1,0,0,1,5.64,19.36Z"/><path class="cls-1" d="M18.36,19.36a1,1,0,0,1-.7-.29L16.6,18A1,1,0,1,1,18,16.6l1.06,1.06a1,1,0,0,1,0,1.41A1,1,0,0,1,18.36,19.36Z"/><path class="cls-1" d="M6.7,7.7A1,1,0,0,1,6,7.4L4.93,6.34A1,1,0,0,1,6.34,4.93L7.4,6a1,1,0,0,1,0,1.41A1,1,0,0,1,6.7,7.7Z"/></g></svg>